<svg xmlns="http://www.w3.org/2000/svg" xmlns:xlink="http://www.w3.org/1999/xlink" width="79" height="63" viewBox="0 0 79 63">
  <defs>
    <clipPath id="clip-path">
      <rect id="Rectangle_171" data-name="Rectangle 171" width="79" height="63" transform="translate(0.392 0.378)" fill="#fff"/>
    </clipPath>
  </defs>
  <g id="DISCORD_W" data-name="DISCORD W" transform="translate(-0.392 -0.379)" clip-path="url(#clip-path)">
    <path id="Path_715" data-name="Path 715" d="M67.743,5.468A65.99,65.99,0,0,0,51.455.416a.247.247,0,0,0-.262.124,45.968,45.968,0,0,0-2.028,4.166,60.922,60.922,0,0,0-18.295,0A42.161,42.161,0,0,0,28.81.54a.257.257,0,0,0-.262-.124A65.807,65.807,0,0,0,12.26,5.468a.233.233,0,0,0-.107.092C1.778,21.059-1.063,36.177.331,51.108a.275.275,0,0,0,.1.187A66.359,66.359,0,0,0,20.417,61.4.259.259,0,0,0,20.7,61.3a47.429,47.429,0,0,0,4.088-6.649.253.253,0,0,0-.139-.352A43.7,43.7,0,0,1,18.4,51.327a.257.257,0,0,1-.025-.426c.42-.314.839-.641,1.24-.972a.247.247,0,0,1,.259-.035,47.324,47.324,0,0,0,40.217,0,.246.246,0,0,1,.262.032c.4.33.82.66,1.243.975a.257.257,0,0,1-.022.426A41.008,41.008,0,0,1,55.331,54.3a.255.255,0,0,0-.136.356A53.252,53.252,0,0,0,59.28,61.3a.254.254,0,0,0,.281.1A66.139,66.139,0,0,0,79.575,51.3a.257.257,0,0,0,.1-.184C81.347,33.85,76.884,18.855,67.847,5.563A.2.2,0,0,0,67.743,5.468Zm-41,36.549c-3.943,0-7.192-3.62-7.192-8.065s3.186-8.065,7.192-8.065c4.037,0,7.255,3.652,7.192,8.065C33.933,38.4,30.747,42.017,26.741,42.017Zm26.59,0c-3.943,0-7.192-3.62-7.192-8.065s3.186-8.065,7.192-8.065c4.037,0,7.255,3.652,7.192,8.065C60.523,38.4,57.369,42.017,53.331,42.017Z" transform="translate(2.242 1.473)" fill="#fff"/>
  </g>
</svg>
