<svg id="FACEBOOK_W" data-name="FACEBOOK W" xmlns="http://www.w3.org/2000/svg" width="81.054" height="81.053" viewBox="0 0 81.054 81.053">
  <path id="facebook-h" d="M78.712,2H6.342A4.452,4.452,0,0,0,2,6.342v72.08a4.517,4.517,0,0,0,4.342,4.632h39.08V51.79H35V39.632H45.422V30.658c0-10.421,6.369-16.211,15.632-16.211a59.609,59.609,0,0,1,9.553.579v11H64.238c-5.211,0-6.079,2.316-6.079,6.079v7.816H70.317L68.58,51.79H58.159V83.054H78.712a4.263,4.263,0,0,0,4.342-4.342V6.342A4.452,4.452,0,0,0,78.712,2Z" transform="translate(-2 -2)" fill="#fff"/>
</svg>
