<svg id="instagram_W" data-name="instagram W" xmlns="http://www.w3.org/2000/svg" width="91.331" height="91.006" viewBox="0 0 91.331 91.006">
  <path id="Path_584" data-name="Path 584" d="M47.342,10.1c11.983,0,13.6,0,18.461.324a26.71,26.71,0,0,1,8.421,1.619A20.216,20.216,0,0,1,79.4,15.279a12.678,12.678,0,0,1,3.239,5.182,26.71,26.71,0,0,1,1.619,8.421c.324,4.858.324,6.153.324,18.46s0,13.6-.324,18.46a26.71,26.71,0,0,1-1.619,8.421A20.215,20.215,0,0,1,79.4,79.4a12.678,12.678,0,0,1-5.182,3.239A26.71,26.71,0,0,1,65.8,84.262c-4.858.324-6.154.324-18.461.324s-13.6,0-18.461-.324a26.71,26.71,0,0,1-8.421-1.619A20.216,20.216,0,0,1,15.279,79.4a12.678,12.678,0,0,1-3.239-5.182A26.71,26.71,0,0,1,10.421,65.8c-.324-4.858-.324-6.153-.324-18.46s0-13.6.324-18.46A29.092,29.092,0,0,1,12.04,20.46a20.216,20.216,0,0,1,3.239-5.182,12.679,12.679,0,0,1,5.182-3.239,29.093,29.093,0,0,1,8.421-1.619c4.858-.324,6.477-.324,18.461-.324m0-8.1c-12.307,0-13.926,0-18.784.324A42.285,42.285,0,0,0,17.546,4.267a31.2,31.2,0,0,0-8.1,5.182,31.2,31.2,0,0,0-5.182,8.1A40.675,40.675,0,0,0,2,28.557V47.341c0,12.307,0,13.926.324,18.784s.972,8.1,2.267,11.011a24.547,24.547,0,0,0,5.182,8.1,20.267,20.267,0,0,0,8.1,5.182,40.675,40.675,0,0,0,11.012,2.267c4.858.324,6.477.324,18.784.324s13.926,0,18.784-.324,8.1-.972,11.012-2.267a24.547,24.547,0,0,0,8.1-5.182,20.267,20.267,0,0,0,5.182-8.1,40.676,40.676,0,0,0,2.267-11.011c.324-4.858.324-6.477.324-18.784s0-13.926-.324-18.784-.972-8.1-2.267-11.011a24.547,24.547,0,0,0-5.182-8.1,20.267,20.267,0,0,0-8.1-5.182A40.676,40.676,0,0,0,66.45,2Z" transform="translate(-2 -2)" fill="#fff"/>
  <path id="Path_585" data-name="Path 585" d="M32.119,8.8A23.318,23.318,0,1,0,55.437,32.118,23.222,23.222,0,0,0,32.119,8.8Zm0,38.54A15.222,15.222,0,1,1,47.34,32.118,15.2,15.2,0,0,1,32.119,47.34Z" transform="translate(13.223 13.223)" fill="#fff"/>
  <ellipse id="Ellipse_1" data-name="Ellipse 1" cx="5.506" cy="5.506" rx="5.506" ry="5.506" transform="translate(64.126 15.546)" fill="#fff"/>
</svg>
