<svg xmlns="http://www.w3.org/2000/svg" width="24" height="24" viewBox="0 0 24 24">
  <g id="linkedin-svgrepo-com" transform="translate(298 7.002)">
    <path id="Subtraction_6" data-name="Subtraction 6" d="M12,24a12.09,12.09,0,0,1-2.418-.244,11.937,11.937,0,0,1-4.291-1.806,12.035,12.035,0,0,1-4.348-5.28,11.945,11.945,0,0,1-.7-2.252,12.117,12.117,0,0,1,0-4.837A11.938,11.938,0,0,1,2.049,5.291,12.037,12.037,0,0,1,7.329.943a11.928,11.928,0,0,1,2.253-.7,12.113,12.113,0,0,1,4.837,0A11.93,11.93,0,0,1,18.709,2.05a12.034,12.034,0,0,1,4.348,5.28,11.944,11.944,0,0,1,.7,2.252,12.117,12.117,0,0,1,0,4.837,11.936,11.936,0,0,1-1.806,4.291,12.034,12.034,0,0,1-5.28,4.348,11.939,11.939,0,0,1-2.253.7A12.09,12.09,0,0,1,12,24ZM10.5,8.974v7.514h2.255V12.425a1.675,1.675,0,0,1,.517-1.17,1.832,1.832,0,0,1,.563-.382,1.734,1.734,0,0,1,.693-.144,1.217,1.217,0,0,1,.608.144,1.019,1.019,0,0,1,.376.38,2.3,2.3,0,0,1,.245,1.152v4.084h2.247V12.236a4.052,4.052,0,0,0-.835-2.856,2.2,2.2,0,0,0-1.654-.641,3.376,3.376,0,0,0-2.759,1.277V8.974ZM6.762,9v7.489H9.009V9ZM7.875,6A1.125,1.125,0,1,0,9,7.125,1.126,1.126,0,0,0,7.875,6Z" transform="translate(-298 -7.002)" fill="#fdfdfd"/>
  </g>
</svg>
