<svg xmlns="http://www.w3.org/2000/svg" width="76.094" height="76.094" viewBox="0 0 76.094 76.094">
  <path id="REDDIT_W" data-name="REDDIT W" d="M45.143,48.662a.683.683,0,0,1,0,.97c-1.474,1.465-3.786,2.178-7.074,2.178l-.025-.006-.025.006c-3.285,0-5.6-.713-7.074-2.181a.679.679,0,0,1,0-.967.693.693,0,0,1,.973,0c1.2,1.2,3.2,1.779,6.1,1.779l.025.006.025-.006c2.9,0,4.9-.583,6.1-1.779A.693.693,0,0,1,45.143,48.662ZM34.236,41a2.925,2.925,0,1,0-2.923,2.911A2.922,2.922,0,0,0,34.236,41Zm41.858-2.949A38.047,38.047,0,1,1,38.047,0,38.049,38.049,0,0,1,76.094,38.047Zm-15.853-.409a4.908,4.908,0,0,0-8.32-3.513A25.343,25.343,0,0,0,39.03,30.339L41.772,21.7,49.2,23.443l-.01.108a4.031,4.031,0,1,0,.282-1.452l-8.006-1.877a.686.686,0,0,0-.815.46l-3.06,9.632a25.643,25.643,0,0,0-13.5,3.744,4.886,4.886,0,1,0-5.805,7.781,8.811,8.811,0,0,0-.159,1.585c0,7.232,8.893,13.117,19.826,13.117s19.826-5.885,19.826-13.117a8.7,8.7,0,0,0-.14-1.5,4.872,4.872,0,0,0,2.6-4.29Zm-15.447.447A2.912,2.912,0,1,0,47.717,41,2.92,2.92,0,0,0,44.794,38.085Z" fill="#fdfdfd"/>
</svg>
