<svg id="TWITTER_W" data-name="TWITTER W" xmlns="http://www.w3.org/2000/svg" width="80.675" height="65.977" viewBox="0 0 80.675 65.977">
  <path id="twitter" d="M81.575,11.534a37.142,37.142,0,0,1-9.381,2.726,17.6,17.6,0,0,0,7.237-9.27A34.908,34.908,0,0,1,68.978,9.08,16.024,16.024,0,0,0,56.917,3.9,16.847,16.847,0,0,0,40.3,20.8a16.349,16.349,0,0,0,.536,3.817A47.107,47.107,0,0,1,6.8,7.172a14.408,14.408,0,0,0-2.144,7.906,17.12,17.12,0,0,0,7.237,13.9,14.229,14.229,0,0,1-7.5-2.181v.273A16.388,16.388,0,0,0,17.517,43.432a23.081,23.081,0,0,1-4.288.545,12.835,12.835,0,0,1-3.216-.273A17.107,17.107,0,0,0,25.29,55.428,31.983,31.983,0,0,1,4.92,62.517,19.949,19.949,0,0,1,.9,62.244a47.316,47.316,0,0,0,25.194,7.634C56.381,69.878,73,44.25,73,22.167V19.985A28.46,28.46,0,0,0,81.575,11.534Z" transform="translate(-0.9 -3.9)" fill="#fff"/>
</svg>
