<svg xmlns="http://www.w3.org/2000/svg" width="542.887" height="538.652" viewBox="0 0 542.887 538.652">
  <g id="TRADITIONAL_ART" data-name="TRADITIONAL ART" transform="translate(-4368.723 -3649.021)">
    <g id="Group_2621" data-name="Group 2621">
      <g id="Group_2620" data-name="Group 2620" transform="translate(1915.087 3297.996)">
        <path id="Path_1894" data-name="Path 1894" d="M2600.99,1515.128h3.664A4.774,4.774,0,0,0,2600.99,1515.128Z" transform="translate(-85.51 -894.454)" fill="#439401" fill-rule="evenodd"/>
        <path id="Path_1896" data-name="Path 1896" d="M3733.87,1515.133h3.664A4.742,4.742,0,0,0,3733.87,1515.133Z" transform="translate(-803.303 -894.456)" fill="#439401" fill-rule="evenodd"/>
        <path id="Path_1897" data-name="Path 1897" d="M2795.96,913.572Z" transform="translate(-209.043 -513.314)" fill="#439401" fill-rule="evenodd"/>
        <path id="Path_1898" data-name="Path 1898" d="M3548.57,906.523h0C3549.215,906.523,3548.87,907.358,3548.57,906.523Z" transform="translate(-685.897 -509.074)" fill="#439401" fill-rule="evenodd"/>
        <path id="Path_1905" data-name="Path 1905" d="M3129.369,1434.58c.648-1.1,1.59-2.415,2.323-3.543-3.4.172-4.265.359-5.456.088-4.1-.909-8.64-6.13-14.33-3.909,2.224-5.665-3.02-10.16-3.921-14.29-.274-1.195-.069-2.239.092-5.441-1.132.729-2.455,1.671-3.558,2.316a8.176,8.176,0,0,1-1.293.539c-3.994,1.176-10.406-1.037-14.216,3.7-.861-5.646-7.005-7.255-9.908-9.787-1.433-1.257-1.63-2.147-3.3-5.4-1.986,3.869-1.531,3.323-2.583,4.694-3.019,3.268-9.706,4.452-10.622,10.483-3.815-4.756-10.38-2.51-14.367-3.763-1.176-.355-1.967-1.044-4.679-2.8.154,3.067.4,4.078.052,5.617-.942,3.91-6.09,8.49-3.877,14.114-6.218-2.426-10.944,4.023-15.546,4.052-1.293,0-2.891-.161-4.239-.231,1.865,2.895,2.429,3.5,2.807,4.683a24.734,24.734,0,0,1,.505,6.009h3.367a50.118,50.118,0,0,0-.282-5.793,11.152,11.152,0,0,0-.366-1.418h0c4.43-1.011,7.028-4.085,10.4-4.536,3.4-.549,6.009,2.785,4.44,5.349a2.926,2.926,0,0,1-3.6,1.151.231.231,0,0,0,.208-.062c2.331-.692,1.646-3.844-.835-3.953a2.94,2.94,0,0,0-1.979,4.825,5.164,5.164,0,0,0,7.233.931c.055-.04.11-.084.165-.128a8.692,8.692,0,0,1,6.917,3.638h3.649a9.4,9.4,0,0,0-2.407-2.942,10.081,10.081,0,0,0-6.771-2.32,4.008,4.008,0,0,1,5.6-5.584,9.436,9.436,0,0,0,.5,3.466c1.7,5.064,5.39,6.057,9.123,7.379h6.661a9.2,9.2,0,0,1,.1-2.242c.652-3.865,2.715-8.724-1.462-13.432a9.458,9.458,0,0,0-2.748-2.169,4.011,4.011,0,0,1,7.651-2.037,10.025,10.025,0,0,0-1.385,6.995c.568,3.763,3.356,5.972,5.529,8.592a17.014,17.014,0,0,1,2.338,4.294h1.037a15.61,15.61,0,0,1,2.657-4.657c2.587-2.935,6.338-6.148,5.144-11.974a9.417,9.417,0,0,0-1.29-3.254,3.994,3.994,0,0,1,7.621,2.037,10.072,10.072,0,0,0-4.69,5.382c-1.191,3.041-.4,5.958.19,8.688a12.177,12.177,0,0,1,.392,3.763h6.61a29.9,29.9,0,0,0,3.843-1.407,10.06,10.06,0,0,0,5.815-9.449,4.01,4.01,0,0,1,5.6,5.587,10.07,10.07,0,0,0-6.767,2.319,9.375,9.375,0,0,0-2.407,2.964h3.664a8.784,8.784,0,0,1,6.892-3.638c3.983,3.081,9.233-.429,7.833-3.865-1.154-3.012-5.218-1.719-4.62.857a1.952,1.952,0,0,0,1.37,1.341.232.232,0,0,0,.209.066c-2.825,1.286-5.379-2.392-3.305-4.943,3.558-4.606,9.476,1.825,14.543,2.982h0a23.394,23.394,0,0,0-.642,7.207h3.382a25.088,25.088,0,0,1,.458-5.848A8.69,8.69,0,0,1,3129.369,1434.58Zm-69.876-12.97a2.929,2.929,0,0,1-3.693-.795.244.244,0,0,0,.212.047c2.847.678,3.305-3.591.539-4.122a3.064,3.064,0,0,0-3.426,2.649,2.972,2.972,0,0,0,.007.824,5.189,5.189,0,0,0,5.858,4.4l.147-.022c6.782,4.8,3.484,10.472,2.821,14.649h0c-3.759-1.436-10.538-1.5-11.311-9.761a5.539,5.539,0,0,0,.982-4.833c-1.268-4.459-6.643-3.763-6.627-.575.113,2.473,3.271,3.173,3.964.839a.231.231,0,0,0,.066-.209c1.355,2.953-2.506,5.283-4.954,3.3-4.635-3.554,1.817-9.453,2.982-14.506h0c4.309,1.323,8.152-.026,11.278,1.253C3061.548,1415.982,3062.138,1420.166,3059.493,1421.61Zm26.187-4.727c-1.18,3.082-5.639,2.667-5.943-.377a.275.275,0,0,0,.187.161,1.886,1.886,0,0,0,2.656.026.715.715,0,0,1,.052-.055c2.026-2.319-1.371-5.364-3.924-3.235-2.452,1.99-1.59,6.584,2.03,8.061,3.448,7.507-2.2,10.743-4.906,14.088h0c-2.55-3.136-8.358-6.566-4.906-14.088,4.774-1.938,4.136-8.215.561-8.706a2.421,2.421,0,0,0-2.452,3.88,1.88,1.88,0,0,0,2.653.077.546.546,0,0,1,.051-.048.278.278,0,0,0,.183-.161c-.3,3.111-4.782,3.437-5.943.377-2.231-5.4,6.251-7.207,9.86-11.073h0C3079.542,1409.8,3087.921,1411.457,3085.679,1416.883Zm21.9,11.128c-2.444,1.979-6.317-.33-4.958-3.294a.24.24,0,0,0,.066.205,1.954,1.954,0,0,0,1.612,1.422,2.276,2.276,0,0,0,2.349-2.2,2.307,2.307,0,0,0-.084-.685,2.917,2.917,0,0,0-3.283-1.927c-3.115.487-4.687,4.884-2.272,7.976-.776,8.255-7.357,8.248-11.314,9.765h0c-.63-3.964-3.964-9.849,2.821-14.652,5.031.692,7.757-5.005,4.844-7.251-2.5-2.033-5.382,1.1-3.576,3.038a1.984,1.984,0,0,0,1.854.458.245.245,0,0,0,.213-.048,2.921,2.921,0,0,1-3.693.795c-2.624-1.429-2.088-5.617,1.168-6.848a16.529,16.529,0,0,1,6.031-.612,15.32,15.32,0,0,0,5.247-.645h0C3105.758,1418.565,3112.207,1424.464,3107.579,1428.011Z" transform="translate(-350.957 -821.018)" fill="#439401" fill-rule="evenodd"/>
        <path id="Path_1906" data-name="Path 1906" d="M3046.94,1513.961h5.5a3.992,3.992,0,0,0-5.371-.117C3047.024,1513.88,3046.98,1513.92,3046.94,1513.961Z" transform="translate(-368.064 -893.251)" fill="#439401" fill-rule="evenodd"/>
        <path id="Path_1907" data-name="Path 1907" d="M3285.541,1512.879a4.607,4.607,0,0,0-2.631,1.081h5.5a3.382,3.382,0,0,0-2.862-1.081Z" transform="translate(-517.575 -893.25)" fill="#439401" fill-rule="evenodd"/>
        <path id="Path_1908" data-name="Path 1908" d="M2947.342,1496.146c-.267.161-5.474,3.184-5.375,3.466-.073.062.07.447.348,1.033h1.206a6.28,6.28,0,0,0-1.176-.931c4.679-.029,19.595-11.325,23.772.586l.117.352h3.562C2967.472,1493.94,2962.313,1487.235,2947.342,1496.146Z" transform="translate(-301.541 -879.942)" fill="#439401" fill-rule="evenodd"/>
        <path id="Path_1909" data-name="Path 1909" d="M3005.371,1404.979c-1.876.044-2.928.04-2.979.275-.3.062-.363,6.126-.37,6.448a26.671,26.671,0,0,0,1.293,10.5c4.463,10.871,13.927,6.727,20.735,4.815,1.939-6.962,3.913-11.846.861-16.408C3020.456,1404.038,3011.663,1404.811,3005.371,1404.979Zm15.887,19.236h0c-4.437,1.264-6.918,2.151-9.256,1.876-8.1-.927-7.716-14.029-8.551-17.961a1.535,1.535,0,1,1,1.8-1.814c3.964.865,16.949.462,17.873,8.6C3023.391,1417.247,3022.537,1419.661,3021.259,1424.215Z" transform="translate(-339.554 -824.823)" fill="#439401" fill-rule="evenodd"/>
        <path id="Path_1910" data-name="Path 1910" d="M3102.542,1346.778c-.279-.15-5.569-3.125-5.771-2.891-.235-.081-.758.836-1.733,2.44-3.122,5.075-8.471,12.5-4.939,19.76,2.418,4.961,7.7,5.672,14.667,7.464C3109.438,1368.96,3123.793,1358.393,3102.542,1346.778Zm1.18,22.944h0c-5.822-1.469-9.05-1.931-10.776-5.078-3.781-6.888,3.9-15.92,3.928-20.383,2.22,3.781,13.439,7.885,13.641,15.693.081,3.616-2.572,5.668-6.793,9.757Z" transform="translate(-394.672 -786.179)" fill="#439401" fill-rule="evenodd"/>
        <path id="Path_1911" data-name="Path 1911" d="M3204.721,1343.887c-.2-.234-5.441,2.741-5.716,2.891a26.107,26.107,0,0,0-8.383,6.364c-2.4,3.129-3.5,7.123-2.045,10.724,1.187,2.994,3.411,4.914,8.222,9.684,7.09-1.832,12.15-2.543,14.524-7.453,3.437-7.134-1.616-14.392-4.9-19.752C3205.476,1344.723,3204.963,1343.8,3204.721,1343.887Zm2.037,22.8c-1.872,1.4-4.4,1.872-8.918,3.023h0c-4.21-4.111-6.815-6.148-6.73-9.765.194-7.815,11.314-11.9,13.52-15.685C3204.652,1348.434,3214.145,1361.21,3206.759,1366.692Z" transform="translate(-457.391 -786.179)" fill="#439401" fill-rule="evenodd"/>
        <path id="Path_1912" data-name="Path 1912" d="M3299.1,1405.226c-.1-.473-10.006-.381-11.127-.3-8.394.652-14.279,5.364-12.846,13.619.279,1.6.619,2.719,2.213,8.42,6.925,1.935,11.838,3.932,16.4.865,3.8-2.591,5.3-6.885,5.668-11.487C3299.468,1415.463,3299.57,1405.321,3299.1,1405.226Zm-9.643,20.808c-2.33.268-4.759-.583-9.3-1.872h0l-.788-2.766c-.352-1.22-.689-2.363-.9-3.459-2.444-12.612,16.276-10.113,20.365-12.432C3296.654,1409.308,3298.688,1424.983,3289.458,1426.034Z" transform="translate(-512.508 -824.82)" fill="#439401" fill-rule="evenodd"/>
        <path id="Path_1913" data-name="Path 1913" d="M3354.745,1499.6c.158-.465-8.6-5.368-9.446-5.782-4.144-1.964-8.6-2.821-12.732-.828-3.147,1.517-4.576,4.177-5.657,7.658h3.565l.117-.355c4.188-12.091,19.467-.616,23.776-.59a5.6,5.6,0,0,0-1.132.945h1.125C3354.639,1500.066,3354.8,1499.651,3354.745,1499.6Z" transform="translate(-545.453 -879.938)" fill="#439401" fill-rule="evenodd"/>
        <path id="Path_1914" data-name="Path 1914" d="M2976.613,1510.393a3.946,3.946,0,0,0-1.664,1.667h8.427A5.487,5.487,0,0,0,2976.613,1510.393Z" transform="translate(-322.451 -891.35)" fill="#439401" fill-rule="evenodd"/>
        <path id="Path_1915" data-name="Path 1915" d="M3023.906,1424.392c-.428.586-.428,1.033-.322,1.228-.55-.381-2.6.854-2.646,3.514-.077,3.433,4.467,7.3,9.475,3.539C3035.312,1425.762,3027.057,1419.987,3023.906,1424.392Zm4.39,5.148a3.636,3.636,0,0,1-.333.594l-.194.132a2.905,2.905,0,0,1-4.412-1.37,3.613,3.613,0,0,1,.077-2.085c.158-.546.344-.909.22-1.121.205.128.557-.062,1.088-.227a2.774,2.774,0,0,1,3.686,1.517A2.977,2.977,0,0,1,3028.3,1429.539Z" transform="translate(-351.588 -836.221)" fill="#439401" fill-rule="evenodd"/>
        <path id="Path_1916" data-name="Path 1916" d="M3115.906,1375.428c-2.334-1.3-4.419-.026-4.364.586-.1-.194-.5-.388-1.209-.315-5.284.594-4.7,10.633,3.756,9.735C3119.863,1382.9,3118.888,1377.044,3115.906,1375.428Zm-2.708,6.632h0a2.908,2.908,0,0,1-3.411-2.282,2.876,2.876,0,0,1,1.055-2.821c.436-.377.762-.6.747-.865.118.22.517.231,1.07.359C3116,1377.2,3115.785,1380.873,3113.2,1382.06Z" transform="translate(-406.073 -805.816)" fill="#439401" fill-rule="evenodd"/>
        <path id="Path_1917" data-name="Path 1917" d="M3213.654,1375.993c0-.619-2.033-1.843-4.353-.568a5.07,5.07,0,0,0-2.356,4.807c.117,2.026,1.3,3.972,4.152,5.206,6.24.663,8.343-4.906,6.584-7.808C3216.339,1375.41,3213.951,1375.45,3213.654,1375.993Zm-1.4,6.079h-.234s-.213-.1-.213-.106c-2.407-1.333-2.473-4.774.744-5.492.553-.128.952-.139,1.07-.359,0,.253.33.458.743.865,2.415,2.176.649,5.152-2.11,5.111Z" transform="translate(-469.427 -805.816)" fill="#439401" fill-rule="evenodd"/>
        <path id="Path_1918" data-name="Path 1918" d="M3302.747,1425.921c-.59-.443-1.044-.443-1.231-.333.388-.571-.886-2.686-3.514-2.729-3.4-.073-7.331,4.591-3.543,9.787C3301.454,1437.731,3307.089,1429.127,3302.747,1425.921Zm-2.426-.487c.55.161.912.355,1.125.223-.132.213.063.575.223,1.125,1,3.169-2.066,5.045-4.664,3.338h0a3.949,3.949,0,0,1-.623-1.407,2.865,2.865,0,0,1,3.938-3.279Z" transform="translate(-523.91 -836.223)" fill="#439401" fill-rule="evenodd"/>
        <path id="Path_1919" data-name="Path 1919" d="M3345.91,1512.058h8.427C3353.088,1509.182,3348.141,1509.072,3345.91,1512.058Z" transform="translate(-557.491 -891.348)" fill="#439401" fill-rule="evenodd"/>
        <path id="Path_1920" data-name="Path 1920" d="M3186.536,1510.1c-.377-.758-.938.249-1.616,1.942h2.125C3187.2,1510.569,3187.133,1509.7,3186.536,1510.1Z" transform="translate(-455.488 -891.336)" fill="#439401" fill-rule="evenodd"/>
        <path id="Path_1921" data-name="Path 1921" d="M3154.419,1510.078c-.52-.414-.55.469-.406,1.96h1.758C3155.185,1510.353,3154.708,1509.357,3154.419,1510.078Z" transform="translate(-435.858 -891.336)" fill="#439401" fill-rule="evenodd"/>
        <path id="Path_1922" data-name="Path 1922" d="M2600.99,1508.77h3.664A4.774,4.774,0,0,1,2600.99,1508.77Z" transform="translate(-85.51 -890.658)" fill="#439401" fill-rule="evenodd"/>
        <path id="Path_1923" data-name="Path 1923" d="M2944.1,1546.028c28.469,15.913,16.722,44.565,26.476,72.316a121.245,121.245,0,0,0,6.474,14.557c-7.606.528-15.161.758-25.853,4.188-20.346,6.518-40.366,25.886-65.856,10.7,16.719,28.048-7.79,46.921-13.224,75.867a119.259,119.259,0,0,0-1.656,15.858c-3.32-1.623-7.134-3.528-9.64-4.587-25.648-10.915-43.964-3.243-61.691-12.945a38.755,38.755,0,0,1-15.536-15.451c.462,32.617-30.231,36.772-49.379,59.089a117.911,117.911,0,0,0-9.358,12.9,119.678,119.678,0,0,0-9.362-12.9c-17.184-20.024-39.934-23.812-47.192-45.382a39.532,39.532,0,0,1-2.188-13.7c-15.964,28.586-44.437,16.671-72.309,26.476a119.671,119.671,0,0,0-14.561,6.5c-1.33-19.188-2.587-24.673-12.113-44.012-6.471-13.084-13.755-29.264-2.77-47.694-22.1,13.187-40.905.077-56.561-7.057-15.147-6.95-26.4-7.218-35.145-7.823,8.346-17.085,10.065-22.409,11.516-44.188.894-13.678,2.481-32.089,21.453-42.685a38.455,38.455,0,0,1-28.157-11.289A83.59,83.59,0,0,1,2466,1520.223v-11.366h.377c11.267,16.308,17.364,31.4,39.428,33.225a48.877,48.877,0,0,0,16.825-2.078,33.059,33.059,0,0,0,9.962-8.2,35.854,35.854,0,0,1-24.842,5.782c-18.6-2.547-27.062-16.22-34.885-28.733h3.906c1.916,3.129,3.832,6.2,5.921,9.083,13.806,19.32,34.013,22.347,51.813,11.567,1.432-1.824,2.9-3.884,4.459-6.086-4.8-.407-9.449-4.749-12.472-8.482-6.665,7.075-21.163,6.94-28.817-6.082h3.723c5.177,7.885,14.051,11.391,24.662,5.544a44.94,44.94,0,0,1-3.7-5.544h3.375c3.213,5.9,7.738,11.193,13.652,13.956.4-.572,1.7-2.437,2.286-3.261-3.755-1.022-8.845-4.807-12.6-10.7h3.312a32.3,32.3,0,0,0,5.1,6.313,45.412,45.412,0,0,1,4.939-6.313h2.3c-3.261,2.927-5.675,5.544-6.969,6.569,1.927,1.814,3.451,2.825,4.313,3.576a66.79,66.79,0,0,1,8.581-10.146h4.606c-11.805,8.629-18.551,26.875-31.983,31.778a12.9,12.9,0,0,1-1.422,1.059,12.423,12.423,0,0,1,1.762.2c17.331-3.023,34.7,15.847,52.827,10.747a17.732,17.732,0,0,0,7.1-3.653,17.327,17.327,0,0,0,5.416-15.425c-.861-7.2-3.748-19.3-9.2-24.692h4.595c.113.154.231.3.348.465,2.587,3.481,6.4,13.066,7.665,23.823a20.769,20.769,0,0,1-4.877,16.594c-10.057,10.354-23.691,7.449-36.771,1.491-.388,1.088-1.187,2.722-1.949,5.254,3.708.539,30.47,10.574,43.448-5.961a22.281,22.281,0,0,0,4.4-12.978c.377-7.841-3.235-21.574-7.361-28.689h3.884c.608,1.151,1.161,2.33,1.664,3.529,3.451-2.561,11.212-1.209,13.125,6.24a9.36,9.36,0,0,1-4.353,11.073,6.948,6.948,0,0,1-3.884.894,39.23,39.23,0,0,1,.348,5.866c16.323-4.536,10.959-15.33,16.777-20.211-4.1-.729-6.2-4.686-9.969-7.4h5.075c.374.432.7.865.963,1.18,1.627,2.078,3.334,4.228,6.1,4.822l.172.037a27.85,27.85,0,0,0,5.372-3.77c-.9-.648-1.8-1.4-2.792-2.268h2.081a15.989,15.989,0,0,1,1.2,1.8c.568-.55,1.129-1.143,1.689-1.8h5.09a24.837,24.837,0,0,1-5.679,4.891c6.141.165,11.292,2.913,17.51,5.969,9.614,4.646,11.948,3.778,19.544,3.2q-1.385,2.033-2.759,4.041a19.179,19.179,0,0,0-3.257,7.24c-1.938,8.042-.195,17.316-4.58,25.4,9.885-5.36,20.555-1.462,30.653-6.555.678-.366,3.247-2.155,6.02-4.041-.48,6.236-.608,7.13-.344,9.2,1.2,9.442,9.226,17.334,9.49,27.868,6.266-10.215,19.254-12.2,24.347-23.1l2.143-4.408c2.814,5.873,3.06,6.514,4.313,8.137,5.752,7.559,16.667,10.4,22.17,19.379.33-12.08,10.6-20.152,9.542-32.185q-.181-2.424-.374-4.88c6.042,4.151,5.434,3.745,6.973,4.521,8.592,4.236,20.148.89,29.7,6.071-5.342-9.845-1.491-20.628-6.551-30.657-.363-.674-2.133-3.232-4.042-6.02,6.119.465,7.112.612,9.193.344,9.394-1.195,17.371-9.233,27.865-9.49a24.4,24.4,0,0,1-5.687-4.914h5.086c.561.659,1.121,1.257,1.686,1.8a17.685,17.685,0,0,1,1.22-1.8h2.074c-.96.835-1.861,1.587-2.806,2.268a27.794,27.794,0,0,0,5.371,3.77c3.488-.718,5.042-3.452,7.244-6.042h5.064c-3.756,2.719-5.833,6.672-9.951,7.394,5.774,4.844.505,15.7,16.777,20.225a39.347,39.347,0,0,1,.348-5.87c-4.283.487-10.332-4.576-8.248-11.967,1.872-7.383,9.61-8.859,13.124-6.251q.758-1.808,1.667-3.525h4.02c-6.064,10.087-7.731,23.977-7.5,28.689a22.241,22.241,0,0,0,4.4,12.974c13.007,16.576,39.293,6.57,43.448,5.961-.762-2.532-1.561-4.17-1.949-5.25a75.573,75.573,0,0,1-9.709,3.766c-17.686,5.291-30.631-3.4-32.034-16.7-.8-7.145,3.572-23.3,7.764-28.975l.344-.469h4.536a18.642,18.642,0,0,0-2.118,2.466c-2.25,3.107-4.031,8.918-5.276,12.857-2.407,10.853-3.4,16.041,2.224,23.38,6.269,6.445,15.074,7.072,23.787,4.694,12.377-3.375,25.285-12.512,37.585-10.354a12.9,12.9,0,0,1,1.762-.205,12.53,12.53,0,0,1-1.422-1.055c-13.645-4.983-19.954-23.113-32.06-31.778h4.664a65.768,65.768,0,0,1,8.581,10.142c.865-.755,2.4-1.762,4.316-3.572-1.055-.832-3.5-3.51-6.95-6.57h2.275a41.529,41.529,0,0,1,4.943,6.309,32.272,32.272,0,0,0,5.1-6.309h3.3c-3.778,5.987-8.772,9.655-12.59,10.7.583.821,1.891,2.693,2.286,3.257,5.9-2.733,10.424-8.05,13.656-13.952h3.375a44.98,44.98,0,0,1-3.712,5.544c10.347,5.694,19.122,2.722,24.64-5.544h3.752c-7.7,13.1-22.274,13.011-28.817,6.082-3.023,3.73-7.684,8.079-12.469,8.478,1.55,2.221,3.022,4.265,4.455,6.09,14.161,8.577,28.722,7.672,39.948.366,7.8-5.038,12.787-12.919,17.749-21.035h3.961c-8.021,12.732-16.426,26.209-34.944,28.726a35.818,35.818,0,0,1-24.842-5.782,33.575,33.575,0,0,0,9.963,8.2c2.59.5,14.879,5.177,28.905-.835,13.326-5.463,18.448-17.364,27.312-30.309h.432v11.406C2974.727,1533.446,2964.691,1546.322,2944.1,1546.028Zm-163.751,142.745c.821,2.375,1.906,8.746,6.621,15.616,18.258,26.4,42.151,9.611,77.223,24.241h0c5.038-37.545,31.29-50.153,17.624-79.018a48.846,48.846,0,0,0-10.2-13.535,33.374,33.374,0,0,0-12.08-4.536c13.216,6.287,27.528,24.809,15.873,51.464-6.4,14.872-13.414,21.365-15.209,38.707-1.418-.63-3.737-1.686-4.536-1.949-20.562-7.724-48.141,3.506-65.805-19.295a35.89,35.89,0,0,1-7.416-24.409,33.315,33.315,0,0,0-2.088,12.721Zm95.168-99.606c-2.568-4.844-5.327-8.761-6.617-10.893a9.469,9.469,0,0,1-3.92,1.586c5.36,7.669,8.324,19.848,8.237,25.274a32.347,32.347,0,0,0,8.292-3.309C2880.551,1600.325,2878.686,1595.023,2875.513,1589.168Zm6.654,12.282a35.761,35.761,0,0,0,9.849-8.8c-1.777-1.349-5.346-4.833-9.8-8.511-4.778-3.99-9.142-7.013-10.5-8.4a12.54,12.54,0,0,1-1.814,1.8c6.914,5.962,12.293,18.339,12.275,23.911Zm-36.2-30.869c-10.017-1.37-18.551,5.111-25.563,12.249-7.112,6.991-13.623,15.51-12.249,25.571,2.968,20.789,30.125,25.091,34.643,26.886.6-2.59.726-4.371.935-5.522-14.388-1.389-27.575-5.7-31.1-19.683-.125-.821-.275-1.663-.323-2.48-.52-8.438,3.287-13.256,7.519-18.2a50.146,50.146,0,0,1,7.137-7.137c4.785-4.1,9.647-8.053,18.2-7.522a19.547,19.547,0,0,1,12.765,6.188c6.7,6.756,8.486,15.814,9.395,25.238,1.132-.205,2.946-.333,5.522-.934-1.308-3.331-5.965-31.661-26.875-34.661Zm-37.541,21.735a39.7,39.7,0,0,1,3.235-4.906c-3.745-1.62-6.471-8.493-1.777-13.85.432-.458.792-.821,1.253-1.253,5.32-4.661,12.179-2.015,13.846,1.777a39.656,39.656,0,0,1,4.906-3.235c-12.08-11.992-18.65-1.781-25.886-4.422,2.572,7.071-7.43,13.718,4.411,25.89Zm3.957-5.841a92.521,92.521,0,0,1,11.648-11.648c-4.954-3.126-8.5-2.22-11.6,1.055a8.039,8.039,0,0,0-1.081,1.517c-1.7,3.118-.839,6.1,1.03,9.072Zm-55.308,17.576c6.822-1.363,11.589,4.258,11.106,8.464a39.305,39.305,0,0,1,5.866-.344c-4.675-16.418-15.3-10.922-20.207-16.781-1.293,7.335-13.374,8.369-9.113,24.637a38.9,38.9,0,0,1,5.254-2.631c-2.3-3.089-1.942-11.259,7.086-13.348Zm-6,12.9a92.142,92.142,0,0,1,15.935-4.272c-4.844-9.208-14.51-5.441-15.77,1.063a13.287,13.287,0,0,0-.172,3.21Zm-5.606,6.569a22.232,22.232,0,0,0-9.035,10.3c-7.819,19.478,13.762,37.065,16.565,40.619,1.81-1.935,2.814-3.433,3.572-4.316-8.665-6.188-17.224-13.9-17.957-25.347a19.124,19.124,0,0,1,4.547-13.766c3.975-4.8,8.544-6.324,15.242-8.592,30.309-9.856,43.576,10.146,30.389,39.066,1.085.388,2.719,1.187,5.251,1.953.619-4.225,10.541-30.5-5.958-43.458-12.743-9.882-36.783-.227-42.6,3.543Zm-51.56-19.148c7.335,2.239,8.237,9.783,5.841,13.022a38.865,38.865,0,0,1,5.254,2.631c4.276-16.323-7.808-17.181-9.112-24.637-4.782,5.712-15.576.506-20.207,16.781a39.315,39.315,0,0,1,5.866.344c-.433-3.895,3.858-10.3,12.373-8.141Zm-11.186,8.3a92.814,92.814,0,0,1,15.935,4.272c.231-5.844-2.158-8.24-6.408-9.449-4.356-1.044-7.394,1.158-9.512,5.184Zm21.519,10.846c-5.972-3.854-30.016-13.319-42.62-3.543-16.565,13-6.566,39.263-5.958,43.455,2.539-.766,4.159-1.564,5.25-1.949-5.749-12.637-8.9-26.685,1.5-36.776,5.76-4.631,12.509-7.834,31.254-1.495,5.8,2.045,11.765,4.265,15.608,12,4.855,9.614-.154,20.962-8.013,28.385a76.208,76.208,0,0,1-8.116,6.522c.755.883,1.762,2.382,3.572,4.316,2.221-2.818,24.406-21.086,16.562-40.615a22.126,22.126,0,0,0-9.021-10.3Zm-58.492-57.1c-6.775,2.473-14.066-7.306-25.886,4.422a39.324,39.324,0,0,1,4.906,3.239c2.546-5.782,12.827-6.093,16.634,1.773,2.474,5.1-.282,10.241-3.312,11.549a39.9,39.9,0,0,1,3.235,4.906C2653.417,1579.884,2643.037,1573.827,2645.744,1566.419Zm-20.046,8.38a93.1,93.1,0,0,1,11.652,11.651c2.3-3.664,2.854-7.335-.062-10.614a8.334,8.334,0,0,0-4.716-2.865,9.513,9.513,0,0,0-6.874,1.825Zm-8.486-1.546a22.174,22.174,0,0,0-13.436-2.675c-20.775,2.964-25.219,30.459-26.883,34.647,2.587.6,4.378.726,5.522.935,1.385-14.312,5.668-27.561,19.676-31.1a20.776,20.776,0,0,1,16.825,4.067c13.07,9.757,24.563,24.234,15.327,37.662-6.31,9.49-17.507,11.93-28.217,12.945.212,1.147.333,2.953.938,5.522,3.5-1.385,31.679-6.082,34.64-26.886C2643.649,1593.331,2624.666,1577.077,2617.213,1573.252Zm-42.986,15.917c-3.166,5.855-5.038,11.172-5.99,12.659a32.213,32.213,0,0,0,8.292,3.309c-.029-1.623,1.227-15.242,8.233-25.274a9.476,9.476,0,0,1-3.917-1.586C2579.554,1580.408,2576.792,1584.324,2574.227,1589.168Zm5.61-11.651a12.541,12.541,0,0,1-1.814-1.8c-1.363,1.389-5.727,4.411-10.5,8.4-4.456,3.682-8.024,7.163-9.8,8.515a35.805,35.805,0,0,0,9.848,8.8c0-5.851,5.61-18.137,12.282-23.9Zm90.431,111.059a13.57,13.57,0,0,1,.2,1.766,12.16,12.16,0,0,1,1.059-1.425c6.017-16.5,31.06-22.175,35.72-40.381a16.463,16.463,0,0,0-.949-11.838c-3.25-6.368-7.936-8.2-13.758-10.237-16.268-5.481-22.119-3.715-27.931.74-4.55,4.43-6.141,9.819-5.932,16.345C2659.422,1658.663,2672.847,1673.895,2670.268,1688.576Zm120.8-45.034c.429-14.07-8.717-21.739-19.939-20.317a62.757,62.757,0,0,0-13.93,3.232c-5.705,2-10.479,3.807-13.755,10.237a16.443,16.443,0,0,0-.949,11.838c4.638,18.206,29.7,23.878,35.72,40.381a12.928,12.928,0,0,1,1.055,1.425,13.542,13.542,0,0,1,.205-1.766c-2.576-14.682,10.849-29.913,11.6-45.034Zm56.946,1.726c10.93,2.59,17.865,18.225,6.038,32.459,2.55.865,4.558,3.719,5.038,6.932,1.033,6.793-3.976,12.941-5.793,18.43a24.363,24.363,0,0,0-.967,5.008,30.531,30.531,0,0,0-4.111-1.509c-5.313-1.2-9.992-.432-15.022-2.034-6.288-1.96-8.713-6.8-8.024-10.16-18.093,3.092-28.352-10.567-25.069-21.471-4.745-.755-10.831-2.62-13.575-6.559-1.143,2.455-2.184,4.745-3.048,6.9-.257,10.508,2.773,18.987,8.281,25.666,17.785,21.438,44.374,9.274,65.534,17.748a44.519,44.519,0,0,1,2.154-8.336c3.386-9.559,9.168-17.943,13.055-26.641,9.585-21.108,2.8-40.421-15.887-50.662-2.3-.33-4.808-.579-7.5-.813,2.044,4.346.616,10.534-1.11,15.037Zm-15.777,11.908c-18,14.6-36.856,11.7-43.7,4.913-.432.912-1.4,3.023-1.678,3.605,11.567,8.086,32.452,4.789,41.509-1.224,11.868-7.929,21.05-22.438,20.013-34.306-.74-.062-2.942-.253-3.957-.348,1.37,5.225-.348,17.778-12.194,27.355Zm-28.205,7.632a35.7,35.7,0,0,0,12.919-2.693c-.861-2.059-2.209-6.859-4.225-12.271-2.158-5.848-4.411-10.648-4.9-12.516a12.465,12.465,0,0,1-2.466.649c2.986,8.592,1.484,21.958-1.33,26.835Zm13.93-3.122a65.087,65.087,0,0,0,11.4-6.562c-6.606-3.884-15.048-14.762-16.7-20.43a25.6,25.6,0,0,1-4.034,2.341c4.122,4.283,9.259,17.016,9.336,24.659Zm3.763-17.041c3.682,4.456,7.163,8.024,8.519,9.8a35.69,35.69,0,0,0,8.79-9.853c-5.991,0-18.181-5.639-23.911-12.271a11.977,11.977,0,0,1-1.792,1.814c1.389,1.37,4.4,5.734,8.391,10.512Zm5.031-6.7c5.855,3.166,11.172,5.038,12.659,5.991a32.334,32.334,0,0,0,3.309-8.292c-1.623.026-15.242-1.235-25.27-8.237a9.414,9.414,0,0,1-1.59,3.917c2.132,1.293,6.049,4.056,10.889,6.625Zm22.885,65.457c2.29-8.2,12.08-18.012,3.844-25-5.991,6.83-17.991,13.956-27.414,15.828,1.96,10.7,15.682,7.145,23.571,9.175Zm4.639-31.525c5.606-9.449,4.364-19.375-6.511-25.967a45.477,45.477,0,0,1-3.7,7.236c7.383,2.828,6.9,16.6-8.669,25.586s-27.711,2.488-26.487-5.291a45.881,45.881,0,0,1-8.115-.432c.26,12.535,8.09,18.752,19.228,18.624,11.212-.179,28.458-10.124,34.251-19.76ZM2843.516,1654c-7.738,11.747-18.5,18.511-33.606,19.416,1.6,8.38,13.11,8.493,23.753,2.341C2844.153,1669.7,2850.049,1659.634,2843.516,1654Zm-116.317,4.826a25.5,25.5,0,0,1-4.672,0c1.422,5.8-.5,19.419-4.246,26.04a65.333,65.333,0,0,0,13.165,0c-3.778-6.716-5.639-20.343-4.239-26.04Zm-5.514-.136a12.323,12.323,0,0,1-2.458-.674c-1.7,8.922-9.673,19.767-14.572,22.585a35.663,35.663,0,0,0,12.538,4.133c.286-2.217,1.513-7.057,2.473-12.747,1.077-6.137,1.51-11.424,2.026-13.3Zm8.365,13.3c.957,5.694,2.188,10.527,2.469,12.747a35.651,35.651,0,0,0,12.538-4.137c-5.177-2.968-12.941-13.945-14.568-22.581a12.474,12.474,0,0,1-2.459.671C2728.565,1660.568,2729,1665.859,2730.049,1672Zm-5.177,16.631a41.123,41.123,0,0,1-15.37-2.429c-9.417-3.484-15.561-10.761-16.9-15.689-.861.6-2.722,1.916-3.257,2.286,6.1,13.058,26.088,20.354,36.563,19.7a47.64,47.64,0,0,0,7.515-1.1c10.288-2.319,22.4-8.812,26.97-18.606-.539-.37-2.418-1.693-3.261-2.286-1.781,6.573-12.45,18.62-32.258,18.111Zm19.778,23.233c9.581-5.386,13.476-14.579,7.332-25.743a45.614,45.614,0,0,1-6.833,4.411c4.891,6.042-2.155,17.833-20.281,17.825-18.627,0-24.97-12.04-20.28-17.825a45.313,45.313,0,0,1-6.822-4.411c-6.075,11.065-2.308,20.32,7.335,25.743,9.82,5.437,29.722,5.437,39.545,0Zm-19.778,24.985h0c5.851-5.734,19.445-9.563,15.828-19.731-8.819,3-22.735,3.026-31.657,0-3.656,10.285,9.926,13.952,15.828,19.723ZM2744.287,1691c-12.579,6.3-25.5,6.665-38.8,0-3.451,9.864,11.8,15.73,25.454,13.484C2738.678,1703.221,2746.845,1698.359,2744.287,1691Zm16.73-17.785c-.407,4.789-4.745,9.449-8.479,12.472,8.237,7.767,6.273,24.75-10.985,31.133,2.268,2.55,2.624,7.936-1.868,12.813-2.689,2.935-6.038,4.749-9.156,6.965a21.479,21.479,0,0,0-5.646,5.672c-.7-.865-1.393-1.861-2.111-2.645a14.2,14.2,0,0,0-1.228-1.213,79.326,79.326,0,0,0-7.167-5.122c-2.935-2.063-5.756-4.609-7.068-7.947-1.228-3.151-.813-6.6.9-8.526-17.569-6.5-19.028-23.559-10.981-31.133-3.719-3.023-8.072-7.672-8.479-12.472-2.217,1.553-4.265,3.023-6.086,4.459-10.882,17.961-7.728,38.018,11.567,51.82,7.717,5.61,16.91,9.951,24.622,16.543a45.385,45.385,0,0,1,5.741,5.8l.286.348h0c3.646-4.748,9.449-9.061,14.44-12.326,5.694-3.686,11.322-6.815,16.213-10.354,19.547-13.974,22.262-34.159,11.567-51.816-1.839-1.44-3.884-2.913-6.1-4.467ZM2644.4,1637.969a12.449,12.449,0,0,1-2.462-.648c-.491,1.88-2.755,6.679-4.9,12.513-2.016,5.411-3.364,10.215-4.228,12.271a35.59,35.59,0,0,0,12.923,2.693c-2.74-4.693-4.412-18.023-1.344-26.835Zm-33.672,6.632a35.856,35.856,0,0,0,8.793,9.852c1.355-1.781,4.837-5.346,8.515-9.8,3.99-4.778,7.009-9.138,8.4-10.508a12.143,12.143,0,0,1-1.792-1.81c-5.613,6.481-17.745,12.285-23.926,12.271Zm23.171-13.271a9.374,9.374,0,0,1-1.586-3.92c-8.944,6.247-21.929,8.288-25.274,8.237a32.632,32.632,0,0,0,3.309,8.3c1.491-.96,6.8-2.828,12.659-5.994,4.833-2.569,8.746-5.331,10.879-6.621Zm-13.516,23.794a65.2,65.2,0,0,0,11.4,6.581c.081-7.922,5.416-20.592,9.336-24.673a25.59,25.59,0,0,1-4.038-2.338c-1.608,5.525-9.94,16.429-16.7,20.43Zm-2.873,2.067c-11.651-9.427-13.619-21.933-12.19-27.352l-3.961.348c-1.421,16.286,15.1,32.543,22.816,35.816,12.571,5.573,28.832,6.61,38.71-.3-.282-.6-1.26-2.693-1.678-3.609-7.148,7.094-26.176,9.3-43.7-4.913Zm12.219,34.482c11.208.125,18.979-6.134,19.225-18.624a45.869,45.869,0,0,1-8.112.432c.572,3.616-2.744,10.728-14.337,9.49-12.281-1.26-26.256-12.754-25.454-22.816.275-2.927,1.942-5.961,4.617-6.987a45.491,45.491,0,0,1-3.7-7.236c-4.236,2.59-7.533,5.694-9.061,10.494-5.657,18.4,22.731,34.98,36.823,35.233Zm-33.463-13.249c-8.2,6.965,1.692,17.29,3.843,25h0c8.405-2.154,21.6,1.623,23.571-9.171-9.072-1.818-21.171-8.717-27.418-15.825Zm43.575-5c-14.74-.861-25.8-7.566-33.6-19.415-9.449,8.149,6.9,23.732,20.687,25.794,6.057.927,11.795-.575,12.9-6.394Zm26.425-.132c-.865-2.158-1.9-4.448-3.049-6.9-2.748,3.953-8.834,5.8-13.575,6.559,3.261,10.849-6.943,24.567-25.069,21.471.539,2.631-.942,5.8-3.481,7.834-2.806,2.235-6.522,3.026-10.09,3.349a77.27,77.27,0,0,0-8.768.865,16.633,16.633,0,0,0-1.674.429c-1.008.326-2.1.831-3.147,1.235-1.048-6.83-1.077-5.371-4.613-13.026a26.348,26.348,0,0,1-1.887-5.32c-1.235-5.481.729-9.6,3.451-11.384a5.673,5.673,0,0,1,1.323-.645c-12.513-15.059-3.84-30.114,6.038-32.459-1.726-4.5-3.155-10.688-1.107-15.033-2.7.234-5.207.484-7.5.813-18.316,10.058-25.677,29.1-15.887,50.666,3.88,8.709,9.666,17.078,13.055,26.637a48.237,48.237,0,0,1,1.535,5.177c.073.319.612,2.869.612,3.151,16.869-6.756,38.065-.348,54.154-8.629,11.853-6.042,20.075-18.184,19.668-34.8Zm-32.943-61.889a15.679,15.679,0,0,0,.78-4c.432-7.984-3.6-12.326-10-19.313-4.463-4.089-7.951-7.127-11-8.493a17.241,17.241,0,0,0-12.307-.725,17.745,17.745,0,0,0-6.723,4.316c-13.374,13.044-5.885,37.717-17.111,51.131a12.751,12.751,0,0,1-.7,1.627,12.784,12.784,0,0,1,1.627-.7c14.748-12.384,48.174-2.33,55.429-23.853Zm.048,15.246c1.2,1.132,3.36,4.283,7.419,6.3,3.781,2.5,7.584,2.8,9.167,3.276a32.19,32.19,0,0,1,.594-3.327c-5.126.758-12.681-3.572-14.6-8.427a32.661,32.661,0,0,1-2.591,2.177Zm16.437,10.879a9.42,9.42,0,0,1-4.185.582c-.047,2.5-.483,7.266-.285,12.74.187,6.658,1.228,12.2,1.143,13.964a32.633,32.633,0,0,0,8.834-1.3c-.868-1.444-6.551-13.861-5.514-25.992Zm64.948,17.4c-4.668,9.981-14.971,18.214-17.77,19.767a32.417,32.417,0,0,0,7.017,5.529c.806-1.572,4.477-5.848,7.969-11.52,2.909-4.646,4.914-8.992,6.123-11.179A9.509,9.509,0,0,1,2714.759,1654.93Zm10.113.546c4.522.275,7.969-1.374,9.574-1.752q-.654-1.561-1.151-3.177c-4.078,3.235-12.78,3.232-16.851,0q-.494,1.616-1.15,3.177C2716.9,1654.1,2720.351,1655.75,2724.872,1655.476Zm6.779,2.052c1.2,2.187,3.213,6.533,6.122,11.182,3.492,5.668,7.159,9.922,7.966,11.516a32.117,32.117,0,0,0,7.017-5.529c-1.422-.784-12.59-8.691-17.77-19.763a9.514,9.514,0,0,1-3.334,2.6Zm62.771,6.005a32.356,32.356,0,0,0,8.834,1.3c-.08-1.766.96-7.31,1.143-13.964.2-5.478-.235-10.245-.282-12.743a9.408,9.408,0,0,1-4.184-.579c.927,10.776-3.741,23.036-5.511,25.992Zm5.364-27.319c1.587-.476,5.394-.773,9.171-3.276,4.06-2.015,6.218-5.181,7.42-6.3q-1.347-1.011-2.591-2.154c-1.909,4.84-9.453,9.189-14.594,8.427A31.594,31.594,0,0,1,2799.786,1636.214Zm47.225-57.891a17.526,17.526,0,0,0-14.11,3.558c-13.4,10.08-24.113,24.362-12.15,36.244,13.113,13.451,37.666,5.844,51.124,17.115a13.05,13.05,0,0,1,1.627.7,13.284,13.284,0,0,1-.7-1.627C2860.037,1619.052,2871.186,1584.442,2847.011,1578.323Zm-176.93,128.031c1.513,18.51,12.872,26.472,25.838,34.61,12.513,7.892,18.917,12.212,28.931,25,9.9-12.645,16.111-16.913,28.931-25,12.945-8.116,24.325-16.074,25.838-34.61.641-8.284-1.575-14.264-2.074-16.829a33.366,33.366,0,0,0-8.2-9.951c9.321,13.528,9.944,36.347-11.985,52.5-7.823,5.833-16.851,10.2-24.267,16.579a45.376,45.376,0,0,0-8.259,9.336l-1.594-2.2c-10.823-15.078-33.167-19.881-43.407-36.614a36.448,36.448,0,0,1,.491-39.6,33.371,33.371,0,0,0-8.2,9.951c-.154.769-1.411,5.232-1.649,7.3A39.724,39.724,0,0,0,2670.081,1706.354Zm-84.551,22.273h0c24.9-10.384,38.4-5.027,55.22-9.061a34.787,34.787,0,0,0,13.439-6.174c12.183-9.083,14.359-22.141,15.217-24.615a33.347,33.347,0,0,0-2.107-12.725c1.429,18.012-11.212,36.644-36.625,39.476-17.451,2.052-24.944-1.048-41.128,6.174-1.8-17.331-8.849-23.937-15.213-38.706-10.989-25.117,1.063-44.418,15.873-51.464a33.419,33.419,0,0,0-12.077,4.536,48.617,48.617,0,0,0-10.2,13.538c-13.681,28.924,12.52,40.916,17.635,79.014Zm-62.13-185.871c-2.312.8-8.735,1.9-15.613,6.625-26.505,18.335-9.78,43.528-24.237,77.233h0c37.875,4.914,49.926,31.4,79.007,17.628a40,40,0,0,0,9.49-6.361c2.279-2.089,4.06-3.847,4.06-3.847a33.375,33.375,0,0,0,4.536-12.08c-7.427,15.634-27.282,26.443-51.457,15.872-14.762-6.364-21.39-13.414-38.7-15.213a45.376,45.376,0,0,0,3.954-11.824c3.547-18.844-2.993-42.81,17.29-58.525a35.849,35.849,0,0,1,24.4-7.42A33.806,33.806,0,0,0,2523.4,1542.756Zm15.495,3.151c-9.49-.194-18.192,2.122-25.659,8.281-21.4,17.756-9.307,44.272-17.748,65.541,18.192,2.671,33.13,18.734,51.212,19.61,13,.689,25.934-5.232,34.416-20.284.326-2.294.579-4.807.81-7.5-4.356,2.055-10.552.608-15.03-1.11-2.62,11.073-18.3,17.811-32.452,6.042-.942,2.836-5.921,8.2-17.349,2.9-1.762-.81-3.5-1.726-5.291-2.561a21.493,21.493,0,0,0-7.735-2.052,30.375,30.375,0,0,0,1.513-4.111c1.194-5.335.428-9.988,2.03-15.026,2.037-6.533,7.057-8.661,10.16-8.024-3.023-17.781,10.23-28.451,21.467-25.084.755-4.745,2.62-10.834,6.559-13.571-2.451-1.151-4.745-2.188-6.9-3.052Zm-1.66,57.385c-7.086-8.248-10.827-21.251-6-28.22,1.726-2.429,4.69-4.184,7.493-3.741a45.574,45.574,0,0,1,.432-8.116c-23.237.487-23.823,26.582-6.155,47.148,9.325,10.9,24.314,14.623,33.272-.169a45.009,45.009,0,0,1-7.233-3.7c-2.239,5.774-12.677,7.522-21.8-3.2Zm20.936,2.646c-11.842-7.808-18.551-18.906-19.416-33.606-12.179,2.312-5.994,23.893,5.023,32.679,4.873,3.906,10.585,5.36,14.392.923Zm-49.394,6.119c8.075,2.253,17.957,12.11,25,3.84-7.006-6.137-13.989-18.17-15.829-27.414-10.655,1.949-7.13,15.642-9.171,23.571h0Zm41.3-61.1-3.609-1.678c-8.438,12.08-4.873,34.306,3.151,44.2,7.145,9.373,20.43,18.368,32.357,17.338.048-.561.26-2.986.348-3.968-6.5,1.729-22.3-1.385-31.819-18.888-9.815-16.085-5.917-31.47-.428-37.014Zm-1.436,5.892a32.211,32.211,0,0,0-1.293,8.834c1.762-.081,7.306.96,13.956,1.147,5.478.2,10.244-.235,12.743-.286a9.452,9.452,0,0,1,.583-4.184c-10.823.923-23.083-3.774-25.989-5.518Zm25.56,10.933c-8.566,2.982-21.947,1.51-26.838-1.33a35.665,35.665,0,0,0,2.693,12.923c2.059-.865,6.855-2.209,12.271-4.228,5.844-2.158,10.644-4.412,12.512-4.9a12.528,12.528,0,0,1-.634-2.47Zm-23.728,12.6a65.839,65.839,0,0,0,6.577,11.406c3.909-6.632,14.784-15.063,20.427-16.7a25.306,25.306,0,0,1-2.338-4.038c-4.283,4.122-17.034,9.266-24.662,9.336Zm25.483-18.17c.473,1.583.773,5.393,3.275,9.167,2.016,4.063,5.177,6.222,6.3,7.423a33.054,33.054,0,0,1,2.155-2.59c-4.833-1.909-9.182-9.449-8.424-14.6A32.667,32.667,0,0,1,2575.956,1562.2Zm28.517-43.063c-1.293-4.349-4.745-5.84-9.252-5.672a92.5,92.5,0,0,1,4.272,15.968c5.2-2.774,6.045-6.038,4.983-10.3Zm15.026-2.9c-2.187,1.942-2.59,4.463-3.023,7.335a17.456,17.456,0,0,1-2.114,6.705,15.607,15.607,0,0,1-10.278,7.376,10.219,10.219,0,0,1-4.136,0c-.535,11.648-7.336,20.39-19.592,23.677a43.3,43.3,0,0,0,3.257,7.493,42.3,42.3,0,0,0,4.858,6.562c8.314-8.317,18.932-10.849,30.3-5.126.993-3.928,6.815-8.834,13.583-8.8,6.038-.18,9.629,4.287,14.729,2.591a27.766,27.766,0,0,0,2.77-5.954c-6.8-.663-14.385-4.39-41.161-3.759,13.89-22.794,14.8-31.957,17.327-37.545a28.592,28.592,0,0,0-6.515-.557Zm7.193.733c.037,3.664-2.338,17.338-11.787,33.808h0c17.488.04,31.151,4.316,35.163,6.687a27.708,27.708,0,0,0,.89-4.7c-4.247-.641-14.385-4.745-25.069-4.913-1.913-.029-4.173.117-6.265.2,3.239-5.115,5.976-8.643,9.475-21.863.945-3.653,1.626-6.368,2.121-7.632a28.314,28.314,0,0,0-4.525-1.586Zm5.349,1.971a57.094,57.094,0,0,1-6.108,25.432v.04h0a46.016,46.016,0,0,1,8.863,1.143,59.121,59.121,0,0,1,16.25,6.291c.191-2.312.18-4.122.183-5.419,0,0-10.457-3.158-19.8-5.177,2.693-8.4,5.412-19.742,5.412-19.742-1.2-.689-2.719-1.583-4.785-2.561Zm21.372,9.6h0c-6.134-.861-10.842-3.766-15.37-6.35a48.957,48.957,0,0,1-2.2,16.5h0a48.72,48.72,0,0,1,15.388,6.339c.055-10.512.6-11.67,2.184-16.488Zm30.536,31.983a3.75,3.75,0,0,1-.333-1.762h0c-5.72,2.246-10.615,2.155-16.488,2.184,2.708,3.807,5.177,10.457,6.335,15.389h0a49.141,49.141,0,0,1,16.5-2.206c-2.7-4.763-4.9-8.427-6.009-13.608Zm6.705,14.813s-10.5,2.451-19.741,5.412c-.821-3.781-1.191-5.533-2.2-9.263-1.359-5-2.587-8.566-2.986-10.545-1.293,0-3.122,0-5.416.183a58.426,58.426,0,0,1,7.222,22c.161,1.634.205,3.133.205,3.133h0s12.993-6.837,25.454-6.122c-.971-2.107-1.9-3.69-2.539-4.8Zm2.946,5.61c-4.078,1.594-14.81,3.078-24.161,8.284-1.674.927-3.561,2.187-5.331,3.3.242-6.042.865-10.457-2.729-23.669-1.008-3.638-1.777-6.328-1.979-7.669a28.1,28.1,0,0,0-4.7.887c2.359,3.994,6.646,17.474,6.687,35.171h0c15.257-8.757,29.271-11.835,33.8-11.794a27.992,27.992,0,0,0-1.583-4.507Zm1.726,5.177c-6.174,2.8-14.462,3.276-37.542,17.327.63-26.784-3.122-34.7-3.755-41.165a28.75,28.75,0,0,0-5.954,2.77.549.549,0,0,1-.059.169c-.861,2.689.139,5.243,1.129,7.694,4.573,11.67-3.071,19.353-7.277,20.453,5.61,11.27,3.386,21.8-5.122,30.3a36.029,36.029,0,0,0,14.048,8.119c3.078-11.487,11.065-18.87,23.677-19.595-1.176-4.386,1.946-13.158,10.834-15.9,3.884-1.066,7.812-.495,10.582-3.631a26.431,26.431,0,0,0-.564-6.533Zm29.546-16.32c-3.84,4.87-8.515,7.409-13.187,10.142a48.367,48.367,0,0,1,13.183,10.157h0a48.827,48.827,0,0,1,13.183-10.157c-4.6-2.7-9.317-5.254-13.179-10.146Zm14.393,10.842s-7.922,7.57-11.761,11.674c-1.572,1.726-.711.773-2.631,2.887-6.126-6.753-14.392-14.561-14.392-14.561-1.132.66-2.715,1.561-4.591,2.854a59.271,59.271,0,0,1,13.572,10.93,46.158,46.158,0,0,1,5.411,7.13h0s3.675-6.672,12.586-13.689a48.828,48.828,0,0,1,6.4-4.371c-1.839-1.271-3.382-2.158-4.591-2.858Zm5.353,3.4c-.861,1.059-2.851,3.023-5.543,5.65-9.446,9.4-11.146,13.322-14.2,19.133-2.8-5.338-4.489-9.494-14.2-19.133-2.693-2.645-4.7-4.591-5.543-5.65a27.775,27.775,0,0,0-3.627,3.125c2.59,1.458,13.377,9.922,23.376,27.113,8.515-14.678,18.91-24.607,23.365-27.124a27.561,27.561,0,0,0-3.631-3.125Zm4.089,3.613c-3.771,5.269-11,10.281-23.834,33.771-12.831-23.494-20.354-28.909-23.838-33.771a27.849,27.849,0,0,0-3.77,5.371c1.136,5.324,6.727,6.086,9.615,11.457a15.629,15.629,0,0,1,1.246,12.586,9.988,9.988,0,0,1-2.081,3.583c10.479,7.1,13.85,17.093,10.71,28.81a36.007,36.007,0,0,0,16.228,0c-3.125-11.674.194-21.68,10.71-28.81-3.4-3.36-4.745-12.516,1.432-19.185,2.913-2.953,6.471-4.283,7.332-8.442a26.938,26.938,0,0,0-3.756-5.371Zm17.422-28.909h0a3.745,3.745,0,0,1-.333,1.762c-1.1,5.152-3.265,8.772-6.038,13.6a49.018,49.018,0,0,1,16.491,2.187h0c1.22-5.181,3.749-11.747,6.339-15.392-5.738-.015-10.692.091-16.459-2.173Zm17.888,2.191c-.194,1.008-.652,2.561-1.246,4.543a154.164,154.164,0,0,0-3.935,15.261,155.687,155.687,0,0,0-15.187-4.224c-2.016-.469-3.587-.865-4.555-1.187-.645,1.121-1.572,2.7-2.561,4.789a45.84,45.84,0,0,1,7.731.564,50.993,50.993,0,0,1,17.741,5.558h0v-.044c.03-1.048.1-2.077.2-3.089a58.837,58.837,0,0,1,7.225-22.006c-2.29-.169-4.115-.15-5.419-.158Zm6.339.264c-.432,2.927-2.84,9.629-4.093,16.792a56.571,56.571,0,0,0-.619,14.546c-5.972-3.77-9.336-6.167-21.859-9.468-3.653-.945-6.368-1.627-7.632-2.121a28.653,28.653,0,0,0-1.583,4.518c2.719-.026,16.341,1.773,33.8,11.791h0c.044-18.518,4.712-31.825,6.687-35.171a28.079,28.079,0,0,0-4.7-.879Zm5.342,1.081c-.663,6.745-4.39,14.2-3.756,41.169-22.867-13.923-31.877-14.77-37.541-17.327a27.56,27.56,0,0,0-.579,6.536c2.77,3.126,6.683,2.565,10.582,3.631,8.519,2.631,12.117,11.124,10.831,15.9,12.578.725,20.6,8.094,23.677,19.595a43.142,43.142,0,0,0,7.489-3.261,42.094,42.094,0,0,0,6.562-4.858c-8.552-8.544-10.7-19.1-5.126-30.3-2.913-.766-5.756-3.884-7.112-6.632a15.708,15.708,0,0,1-1.689-6.951,15.048,15.048,0,0,1,.466-3.748c1.008-3.862,3.473-7.028,2.158-10.981a28.457,28.457,0,0,0-5.972-2.77Zm.641-33.745h0c1.6,4.859,2.14,6.042,2.184,16.492a49.1,49.1,0,0,1,15.385-6.335h0a48.847,48.847,0,0,1-2.2-16.5c-4.378,2.488-9.171,5.456-15.37,6.342Zm16.58-7.046s2.608,11,5.408,19.738c-9.34,2.03-19.8,5.177-19.8,5.177,0,1.3,0,3.107.179,5.419a59.166,59.166,0,0,1,16.25-6.291,46.354,46.354,0,0,1,8.867-1.143h0v-.04a57.251,57.251,0,0,1-6.108-25.432C2815.651,1519.911,2814.152,1520.791,2812.918,1521.5Zm10.134-4.529a28.47,28.47,0,0,0-4.518,1.583c1.385,3.554,2.858,13.055,6.965,21.621a67.514,67.514,0,0,0,4.621,7.874c-6.005-.242-10.438-.861-23.662,2.734-3.642,1.007-6.328,1.777-7.673,1.978a27.806,27.806,0,0,0,.89,4.7c2.521-1.487,15.243-6.639,35.167-6.687h0c-8.449-14.748-11.842-28.678-11.794-33.808Zm31.467-3.5c-5.855-.224-8.244,2.158-9.449,6.412-1.044,4.349,1.136,7.4,5.177,9.53a92.656,92.656,0,0,1,4.276-15.942Zm-4.745,24.19a12.871,12.871,0,0,1-9.493-2.191c-9.709-6.507-4.965-14.715-10.035-19.232a27.757,27.757,0,0,0-6.537.583c2.777,6.123,3.356,14.608,17.327,37.545-27.253-.637-33.65,3.026-41.161,3.759a28.565,28.565,0,0,0,2.77,5.954c5.079,1.7,8.666-2.777,14.729-2.59,6.563-.03,12.512,4.649,13.582,8.8,11.161-5.61,21.8-3.375,30.3,5.126a36.118,36.118,0,0,0,8.116-14.055c-11.545-3.122-19.031-11.362-19.6-23.71Zm20.684,23.944c.758,5.181-3.6,12.692-8.424,14.6a33.655,33.655,0,0,1,2.155,2.59c1.136-1.2,4.283-3.36,6.3-7.423,2.5-3.778,2.8-7.584,3.275-9.167A32.693,32.693,0,0,1,2870.457,1561.611Zm1.795,13.465c5.775,1.674,16.583,10.186,20.442,16.7a66,66,0,0,0,6.584-11.406c-7.61-.066-20.368-5.21-24.673-9.336A25.869,25.869,0,0,1,2872.252,1575.077Zm15.165.058c5.416,2.015,10.212,3.367,12.271,4.228a35.674,35.674,0,0,0,2.689-12.923c-4.679,2.715-18.012,4.4-26.835,1.33a12.635,12.635,0,0,1-.649,2.462C2876.774,1570.727,2881.57,1572.992,2887.417,1575.135Zm-12.322-12.78a9.366,9.366,0,0,1,.582,4.184c2.5.051,7.266.484,12.743.286,6.654-.187,12.19-1.228,13.957-1.143a32.375,32.375,0,0,0-1.293-8.838C2899.718,1557.658,2887.3,1563.4,2875.1,1562.355Zm24.563-11.41c15.553,15.7-3.129,57.976-29.979,56.228a13.115,13.115,0,0,1-2.294-.333c.092,1.008.308,3.455.352,3.964,13.022,1.129,32.009-11.014,37.468-26.853,3.613-9.493,4.826-25-1.946-34.683Zm41.3,61.108c-2.132-8.277,1.458-21.629-9.171-23.574-1.781,8.955-8.629,21.1-15.829,27.418,7.028,8.255,17.258-1.682,25-3.84h0Zm-17.276-44.294c-3.884-3.528-8.39-4.463-13.091-4.561a45.912,45.912,0,0,1,.432,8.116c9.68-1.532,15.059,16.173,1.491,31.972-9,10.571-19.525,9.061-21.786,3.191a45.48,45.48,0,0,1-7.236,3.7c6.559,10.82,16.5,12.128,25.963,6.511,11.952-7.189,28.414-35.75,14.231-48.922Zm-32.126,38.175c10.292,11.948,31.657-16.993,24.882-29.579a7.941,7.941,0,0,0-5.467-4.03c-.835,14.143-6.958,25.413-19.4,33.61Zm12.377-56.982c3.949,2.744,5.8,8.819,6.559,13.579,10.494-3.147,24.629,6.6,21.467,25.073,3.136-.645,8.119,1.48,10.16,8.028,1.194,3.8,1.088,7.614,1.451,11.41a21.243,21.243,0,0,0,2.093,7.724c-1.1.169-2.3.282-3.345.506-6.434,1.458-12.674,7.372-20.093,6.251-3.334-.506-6.112-2.59-6.929-5.038-14.667,12.183-30,4.291-32.452-6.042-4.5,1.726-10.673,3.162-15.033,1.107.238,2.7.487,5.21.813,7.5,10.889,19.346,29.924,25.315,50.658,15.894,11.018-4.924,21.731-13,34.515-15.136l.432-.073c-4.693-11.824-3.1-26.077-4.316-37.893-2.154-22.123-16.825-36.38-39.091-35.929C2908.695,1546.768,2906.394,1547.809,2903.939,1548.952Zm23.658-5.837c-.5-.128-.927-.253-1.257-.359a33.421,33.421,0,0,0-12.725,2.107,36.436,36.436,0,0,1,34.544,19.383c9.677,17.789,1.542,36.944,11.109,58.382a52.2,52.2,0,0,0-7.379,1.066c-16.4,3.792-30.792,18.041-48.753,18.5a36.474,36.474,0,0,1-34.046-20.225,33.36,33.36,0,0,0,4.532,12.084c1.627,1.4,5.932,6.573,13.538,10.2,29.03,13.725,41.722-12.871,79.029-17.638h0c-14.6-34.053,2.371-58.837-24.237-77.233a44.806,44.806,0,0,0-14.352-6.273Z" transform="translate(0.02 -888.843)" fill="#439401" fill-rule="evenodd"/>
        <path id="Path_1924" data-name="Path 1924" d="M3733.87,1508.77h3.664A4.774,4.774,0,0,1,3733.87,1508.77Z" transform="translate(-803.303 -890.658)" fill="#439401" fill-rule="evenodd"/>
        <path id="Path_1925" data-name="Path 1925" d="M3548.57,2095.478h0C3549.215,2095.478,3548.87,2094.643,3548.57,2095.478Z" transform="translate(-685.897 -1262.161)" fill="#439401" fill-rule="evenodd"/>
        <path id="Path_1926" data-name="Path 1926" d="M2694.426,1550.891c-7.577,4.822-16.993-.982-21.694-2.979a63.862,63.862,0,0,0-11.959-3.767c-2.953-.63-4.683-.905-4.793-1.161v-.055h0a31.023,31.023,0,0,1,3.572-3.4c8.226-7.493,9.743-11.659,13.714-16.356,9.069-10.659,22.926-7.68,27.209,7.837C2699.951,1529.263,2705.513,1543.915,2694.426,1550.891Zm2.774-18.844c-1.524-5.357-4.287-10.182-9.658-11.567-12.67-3.279-15.7,15.44-30.693,22.244,15.114-1.48,27.1,11.227,35.845,5.438,3.8-2.506,5.331-6.141,5.291-10.743a22.137,22.137,0,0,0-.8-5.47c-.007.04-.058-.132.008.1Z" transform="translate(-120.352 -895.78)" fill="#439401" fill-rule="evenodd"/>
        <path id="Path_1927" data-name="Path 1927" d="M2795.4,1755.923a63.425,63.425,0,0,0,2.726-12.183c.766-6.221.194-18.115,11.124-21.332,6.5-1.924,12.846,1.173,17.547,5.9l-.07-.07c4.727,4.9,7.8,10.816,5.841,17.309-3.239,10.805-15.132,10.267-21.5,11.04a64.5,64.5,0,0,0-12.278,2.7,31.272,31.272,0,0,1-4.767,1.381h0a.089.089,0,0,0-.041-.033h0C2793.837,1760.407,2794.471,1758.784,2795.4,1755.923Zm2.88,2.092c13.534-6.346,23.175-2.821,28.964-9.288a11.017,11.017,0,0,0,2.378-8.911,18.433,18.433,0,0,0-5.452-9.255l.07.077a26.766,26.766,0,0,0-2.093-1.865c-3.492-2.766-7.7-4.382-11.985-3.2-11.413,3.14-6.452,16.1-13.476,30.865a25.229,25.229,0,0,1-2.026,3.587A25.643,25.643,0,0,1,2798.281,1758.015Z" transform="translate(-207.777 -1025.652)" fill="#439401" fill-rule="evenodd"/>
        <path id="Path_1928" data-name="Path 1928" d="M3029.4,1843.66c-1.4-.308,11.237,1.817,13.67,12.084,2.613,10.937-7.819,16.345-12.908,20.185a63.145,63.145,0,0,0-9.171,8.413,31.163,31.163,0,0,1-3.382,3.543h0a.112.112,0,0,0-.048,0h0a31.782,31.782,0,0,1-1.158-4.76c-2.352-10.791-5.181-14.18-7.254-19.917C3004.433,1849.875,3014.036,1839.766,3029.4,1843.66Zm-11.567,43.356c4.763-10.49,16.708-16.184,20.475-21.79,4.25-6.3,2.073-14.931-9.736-18.24l.1.018c-10.08-2.539-15.583,1.542-17.2,6.434-2.968,8.929,7.724,19.43,6.353,33.577Z" transform="translate(-343.356 -1102.31)" fill="#439401" fill-rule="evenodd"/>
        <path id="Path_1929" data-name="Path 1929" d="M3265.047,1887.251h-.026a32.443,32.443,0,0,1-3.415-3.572c-7.478-8.207-11.659-9.757-16.363-13.718-10.75-9.167-7.577-22.9,7.848-27.238-1.92.6,12.9-5.034,19.892,6.053,2.569,4.038,2.158,9.072.561,13.6-2.092,5.793-4.943,9.2-7.317,20.057A34.011,34.011,0,0,1,3265.047,1887.251Zm-11.032-41.19.1-.033c-12.274,3.5-14.07,12.336-9.966,18.419,2.411,3.583,6.416,6.045,9.72,8.845a43.734,43.734,0,0,1,10.919,13.1,25.194,25.194,0,0,1,.059-4.137c1.037-12.579,6.361-18.144,6.844-25.19C3272.191,1849.761,3266.2,1842.936,3254.014,1846.061Z" transform="translate(-489.701 -1101.676)" fill="#439401" fill-rule="evenodd"/>
        <path id="Path_1930" data-name="Path 1930" d="M3482.707,1760.647h-.018v.022h0a33.572,33.572,0,0,1-4.727-1.381,63.437,63.437,0,0,0-12.172-2.7c-5.511-.674-13.245-.337-18.375-5.716a14.16,14.16,0,0,1-2.455-14.725,22.289,22.289,0,0,1,5.309-7.907l-.069.073c4.657-4.727,10.963-7.83,17.4-5.9,10.8,3.206,10.259,15.044,11.029,21.328a63.654,63.654,0,0,0,2.7,12.187c.923,2.862,1.55,4.485,1.381,4.708Zm-16.008-35.072a10.829,10.829,0,0,0-4.822-.238,18.329,18.329,0,0,0-9.142,5.309l.069-.084c-8.68,8.958-6.229,17.51.576,20.826,6.309,3.092,13.743,1.264,25.091,6.632a25.964,25.964,0,0,1,3.594,2.011C3472.562,1746.753,3479.227,1729.056,3466.7,1725.575Z" transform="translate(-619.576 -1025.653)" fill="#439401" fill-rule="evenodd"/>
        <path id="Path_1931" data-name="Path 1931" d="M3605.742,1539.555c2.242,2.022,3.609,3.118,3.572,3.393h0v.026h0a31.21,31.21,0,0,1-4.792,1.169,63.972,63.972,0,0,0-11.963,3.767c-5.825,2.469-15.865,8.911-24.113,1.106-7.995-7.533-2.895-20.438-3.646-17.99,4.159-14.953,17.774-18.921,27.249-7.83C3596,1527.929,3597.524,1532.084,3605.742,1539.555Zm-25.615-19.408c-6.72.4-10.193,5.434-12.047,11.926.073-.231,0-.051.029-.1-3.154,13.114,4.371,20.218,15.418,16.77,3.551-1.121,15.371-6.932,24.9-6-13.678-6.2-18.012-23.226-28.3-22.585Z" transform="translate(-695.599 -895.776)" fill="#439401" fill-rule="evenodd"/>
        <path id="Path_1932" data-name="Path 1932" d="M3129.369,1516.057c.648,1.11,1.59,2.44,2.323,3.58-3.4-.172-4.265-.362-5.456-.092-4.1.92-8.64,6.185-14.33,3.946,2.224,5.712-3.02,10.248-3.921,14.411-.274,1.205-.069,2.257.092,5.485-1.132-.737-2.455-1.685-3.558-2.334a8.563,8.563,0,0,0-1.293-.542c-3.994-1.187-10.406,1.044-14.216-3.734-.861,5.694-7.005,7.313-9.908,9.867-1.433,1.268-1.63,2.166-3.3,5.441-1.986-3.9-1.531-3.349-2.583-4.73-3.019-3.3-9.706-4.492-10.622-10.574-3.815,4.8-10.38,2.532-14.367,3.8-1.176.359-1.967,1.052-4.679,2.821.154-3.089.4-4.111.052-5.661-.942-3.946-6.09-8.563-3.877-14.235-6.218,2.448-10.944-4.056-15.546-4.089-1.293,0-2.891.165-4.239.235,1.868-2.909,2.437-3.514,2.81-4.7a24.974,24.974,0,0,0,.5-6.068h3.367a50.9,50.9,0,0,1-.282,5.84,11.21,11.21,0,0,1-.366,1.433h0c4.43,1.022,7.028,4.118,10.4,4.576,3.4.553,6.009-2.81,4.44-5.4a2.913,2.913,0,0,0-3.6-1.161.232.232,0,0,1,.208.066c2.331.7,1.646,3.873-.835,3.986a2.968,2.968,0,0,1-2.66-3.239,3,3,0,0,1,.681-1.627,5.136,5.136,0,0,1,7.233-.942l.165.132a8.674,8.674,0,0,0,6.917-3.672h3.649a9.448,9.448,0,0,1-2.407,2.964,10.037,10.037,0,0,1-6.775,2.341,6.431,6.431,0,0,1,.433,5.2,6.334,6.334,0,0,1,5.17.432,9.52,9.52,0,0,1,.5-3.5c1.707-5.111,5.39-6.111,9.127-7.445h6.657a9.34,9.34,0,0,0,.1,2.261c.652,3.9,2.715,8.8-1.462,13.546a9.537,9.537,0,0,1-2.748,2.191,4.009,4.009,0,0,0,7.651,2.052,10.181,10.181,0,0,1-1.385-7.053c.568-3.8,3.356-6.024,5.529-8.665a17.255,17.255,0,0,0,2.338-4.335h1.037a15.761,15.761,0,0,0,2.657,4.7c2.587,2.961,6.338,6.2,5.144,12.077a9.511,9.511,0,0,1-1.29,3.279,3.991,3.991,0,0,0,7.621-2.052,10.159,10.159,0,0,1-4.69-5.43c-1.191-3.067-.4-6.009.19-8.76a12.39,12.39,0,0,0,.392-3.8h6.61a29.454,29.454,0,0,1,3.843,1.422,10.149,10.149,0,0,1,5.815,9.523,6.3,6.3,0,0,1,5.17-.432,6.424,6.424,0,0,1,.429-5.2,10.013,10.013,0,0,1-6.767-2.345,9.394,9.394,0,0,1-2.407-2.99h3.664a8.765,8.765,0,0,0,6.892,3.671c3.983-3.107,9.233.432,7.833,3.9-1.154,3.037-5.218,1.733-4.62-.868a1.967,1.967,0,0,1,1.37-1.352.232.232,0,0,1,.209-.062c-2.825-1.3-5.379,2.411-3.305,4.979,3.558,4.657,9.476-1.836,14.543-3h0a23.819,23.819,0,0,1-.642-7.273h3.382a25.54,25.54,0,0,0,.458,5.9A8.573,8.573,0,0,0,3129.369,1516.057Zm-69.876,13.088a2.91,2.91,0,0,0-3.693.8.224.224,0,0,1,.212-.048c2.847-.685,3.305,3.62.539,4.155a3.07,3.07,0,0,1-3.426-2.671,3.023,3.023,0,0,1,.007-.832,5.191,5.191,0,0,1,5.858-4.441l.147.022c6.782-4.84,3.481-10.56,2.821-14.777h0c-3.759,1.451-10.538,1.521-11.311,9.845a5.629,5.629,0,0,1,.982,4.877c-1.268,4.5-6.643,3.8-6.627.579.113-2.5,3.271-3.2,3.964-.843a.224.224,0,0,1,.066.205c1.355-2.975-2.506-5.324-4.954-3.323-4.635,3.583,1.817,9.534,2.982,14.63h0c4.309-1.337,8.152.026,11.278-1.268C3061.548,1534.82,3062.138,1530.6,3059.493,1529.145Zm26.187,4.767c-1.18-3.107-5.639-2.693-5.943.377a.275.275,0,0,1,.187-.161,1.873,1.873,0,0,1,2.656-.018c.015.018.033.033.052.051,2.026,2.341-1.371,5.412-3.924,3.265-2.452-2.008-1.59-6.639,2.03-8.13,3.448-7.57-2.2-10.831-4.906-14.209h0c-2.55,3.166-8.358,6.625-4.906,14.209,4.774,1.956,4.136,8.284.561,8.779a2.423,2.423,0,0,1-2.938-1.781,2.452,2.452,0,0,1,.487-2.14,1.865,1.865,0,0,1,2.649-.077.677.677,0,0,1,.051.051.254.254,0,0,1,.183.161c-.3-3.14-4.778-3.47-5.939-.381-2.231,5.441,6.251,7.266,9.856,11.168h0c3.7-4.03,12.084-5.694,9.842-11.168Zm21.9-11.223c-2.444-1.993-6.317.333-4.958,3.323a.243.243,0,0,1,.066-.209,1.96,1.96,0,0,1,1.612-1.433,2.284,2.284,0,0,1,2.349,2.217,2.341,2.341,0,0,1-.084.692,2.912,2.912,0,0,1-3.287,1.946c-3.118-.491-4.69-4.925-2.276-8.046-.776-8.325-7.353-8.314-11.314-9.845h0c-.63,4-3.964,9.933,2.821,14.777,5.034-.7,7.757,5.049,4.844,7.313-2.5,2.048-5.382-1.114-3.576-3.063a1.961,1.961,0,0,1,1.857-.462.217.217,0,0,1,.209.048,2.9,2.9,0,0,0-3.689-.8c-2.627,1.44-2.092,5.661,1.166,6.907a16.466,16.466,0,0,0,6.034.615,15.207,15.207,0,0,1,5.243.648h0C3105.758,1532.215,3112.207,1526.268,3107.579,1522.689Z" transform="translate(-350.957 -890.708)" fill="#439401" fill-rule="evenodd"/>
        <path id="Path_1933" data-name="Path 1933" d="M3046.94,1508.86h5.5a3.988,3.988,0,0,1-5.371.117C3047.024,1508.94,3046.98,1508.9,3046.94,1508.86Z" transform="translate(-368.064 -890.715)" fill="#439401" fill-rule="evenodd"/>
        <path id="Path_1934" data-name="Path 1934" d="M3285.541,1509.941a4.608,4.608,0,0,1-2.631-1.081h5.5a3.382,3.382,0,0,1-2.862,1.081Z" transform="translate(-517.575 -890.715)" fill="#439401" fill-rule="evenodd"/>
        <path id="Path_1935" data-name="Path 1935" d="M2947.342,1513.54c-.267-.165-5.474-3.312-5.375-3.605-.073-.066.07-.469.348-1.077h1.206a6.507,6.507,0,0,1-1.18.975c4.683.026,19.6,11.787,23.776-.615l.117-.367h3.562C2967.472,1515.841,2962.313,1522.828,2947.342,1513.54Z" transform="translate(-301.541 -890.708)" fill="#439401" fill-rule="evenodd"/>
        <path id="Path_1936" data-name="Path 1936" d="M3005.371,1577.28c-1.876-.044-2.928-.04-2.979-.278-.3-.059-.363-6.123-.37-6.445a26.661,26.661,0,0,1,1.293-10.5c4.463-10.875,13.924-6.731,20.735-4.818,1.939,6.969,3.913,11.846.861,16.407C3020.456,1578.226,3011.663,1577.449,3005.371,1577.28Zm15.887-19.232h0c-4.437-1.264-6.918-2.151-9.256-1.876-8.1.927-7.716,14.029-8.551,17.957a9.9,9.9,0,0,1-.781,2.6,9.656,9.656,0,0,1,2.583-.784c3.964-.865,16.949-.462,17.869-8.592C3023.391,1565.013,3022.537,1562.6,3021.259,1558.048Z" transform="translate(-339.554 -918.586)" fill="#439401" fill-rule="evenodd"/>
        <path id="Path_1937" data-name="Path 1937" d="M3102.542,1626.613c-.279.15-5.569,3.125-5.771,2.895-.235.077-.758-.839-1.733-2.444-3.122-5.074-8.471-12.5-4.939-19.76,2.415-4.957,7.695-5.676,14.664-7.464C3109.438,1604.42,3123.793,1614.991,3102.542,1626.613Zm1.18-22.948h0c-5.822,1.469-9.05,1.931-10.776,5.078-3.781,6.885,3.9,15.92,3.928,20.379,2.22-3.77,13.439-7.885,13.641-15.689.081-3.62-2.572-5.676-6.8-9.761Z" transform="translate(-394.672 -948.359)" fill="#439401" fill-rule="evenodd"/>
        <path id="Path_1938" data-name="Path 1938" d="M3204.721,1629.507c-.2.231-5.441-2.744-5.716-2.895a26.151,26.151,0,0,1-8.383-6.361c-2.4-3.133-3.5-7.123-2.045-10.728,1.191-2.99,3.411-4.917,8.222-9.684,7.09,1.832,12.15,2.543,14.521,7.453,3.44,7.134-1.609,14.392-4.888,19.753C3205.472,1628.668,3204.963,1629.584,3204.721,1629.507Zm2.037-22.8c-1.872-1.4-4.4-1.872-8.918-3.023h0c-4.21,4.115-6.815,6.152-6.73,9.765.194,7.808,11.314,11.9,13.52,15.685C3204.652,1624.957,3214.145,1612.184,3206.759,1606.7Z" transform="translate(-457.391 -948.359)" fill="#439401" fill-rule="evenodd"/>
        <path id="Path_1939" data-name="Path 1939" d="M3299.1,1577.026c-.1.473-10,.388-11.127.3-8.394-.652-14.279-5.364-12.846-13.616.279-1.6.619-2.719,2.213-8.42,6.925-1.935,11.838-3.931,16.4-.865,3.8,2.59,5.3,6.885,5.668,11.479C3299.468,1566.793,3299.57,1576.935,3299.1,1577.026Zm-9.643-20.8c-2.33-.268-4.759.582-9.3,1.872h0l-.788,2.766c-.352,1.22-.689,2.363-.9,3.459-2.444,12.608,16.276,10.112,20.365,12.432C3296.654,1572.948,3298.688,1557.274,3289.458,1556.222Z" transform="translate(-512.508 -918.584)" fill="#439401" fill-rule="evenodd"/>
        <path id="Path_1940" data-name="Path 1940" d="M3354.745,1509.9c.158.469-8.6,5.371-9.446,5.782-4.144,1.964-8.6,2.825-12.732.828-3.147-1.513-4.576-4.173-5.657-7.658h3.565l.117.355c4.188,12.091,19.467.619,23.776.594a5.489,5.489,0,0,1-1.132-.949h1.125C3354.639,1509.432,3354.8,1509.847,3354.745,1509.9Z" transform="translate(-545.453 -890.708)" fill="#439401" fill-rule="evenodd"/>
        <path id="Path_1941" data-name="Path 1941" d="M2976.613,1510.786a4.348,4.348,0,0,1-1.664-1.946h8.427A5.021,5.021,0,0,1,2976.613,1510.786Z" transform="translate(-322.451 -890.702)" fill="#439401" fill-rule="evenodd"/>
        <path id="Path_1942" data-name="Path 1942" d="M3023.906,1581.353c-.428-.564-.428-1-.322-1.187-.546.37-2.6-.828-2.646-3.4-.077-3.323,4.467-7.057,9.475-3.43C3035.312,1580.023,3027.057,1585.615,3023.906,1581.353Zm4.39-4.983a3.482,3.482,0,0,0-.333-.575l-.194-.125a2.923,2.923,0,0,0-4.074.693,2.723,2.723,0,0,0-.337.63,3.38,3.38,0,0,0,.077,2.015c.158.531.344.883.22,1.088.205-.125.557.063,1.088.22a2.8,2.8,0,0,0,3.554-3.946Z" transform="translate(-351.588 -930.624)" fill="#439401" fill-rule="evenodd"/>
        <path id="Path_1943" data-name="Path 1943" d="M3115.908,1630.907c-2.334,1.3-4.415.022-4.36-.59-.1.194-.5.389-1.209.315-5.283-.594-4.708-10.633,3.749-9.732C3119.865,1623.437,3118.89,1629.292,3115.908,1630.907Zm-2.708-6.635h0a2.906,2.906,0,0,0-3.407,2.286,2.866,2.866,0,0,0,1.055,2.818c.436.381.762.6.744.868.121-.224.52-.231,1.073-.359C3116,1629.13,3115.79,1625.459,3113.2,1624.272Z" transform="translate(-406.075 -961.668)" fill="#439401" fill-rule="evenodd"/>
        <path id="Path_1944" data-name="Path 1944" d="M3213.654,1631.015c0,.6-2.033,1.781-4.353.55a4.839,4.839,0,0,1-2.356-4.639c.117-1.957,1.3-3.836,4.152-5.027,6.24-.641,8.343,4.738,6.584,7.537C3216.339,1631.583,3213.951,1631.543,3213.654,1631.015Zm-1.4-5.863h-.234s-.213.1-.213.106c-2.407,1.286-2.473,4.605.744,5.3.553.121.952.136,1.07.348,0-.245.33-.443.743-.839,2.415-2.1.649-4.972-2.11-4.932Z" transform="translate(-469.427 -962.303)" fill="#439401" fill-rule="evenodd"/>
        <path id="Path_1945" data-name="Path 1945" d="M3302.747,1579.874c-.59.429-1.044.429-1.231.323.385.55-.886,2.594-3.514,2.638-3.4.073-7.331-4.437-3.543-9.468C3301.454,1568.443,3307.089,1576.771,3302.747,1579.874Zm-2.426.473c.55-.161.912-.348,1.125-.22-.132-.205.063-.557.223-1.088,1-3.067-2.066-4.88-4.664-3.228h0a3.731,3.731,0,0,0-.623,1.359,2.777,2.777,0,0,0,2.136,3.334A2.977,2.977,0,0,0,3300.321,1580.347Z" transform="translate(-523.91 -930.622)" fill="#439401" fill-rule="evenodd"/>
        <path id="Path_1946" data-name="Path 1946" d="M3345.91,1508.84h8.427C3353.088,1512.2,3348.141,1512.324,3345.91,1508.84Z" transform="translate(-557.491 -890.702)" fill="#439401" fill-rule="evenodd"/>
        <path id="Path_1947" data-name="Path 1947" d="M3186.536,1510.782c-.377.759-.938-.245-1.616-1.942h2.125C3187.2,1510.309,3187.133,1511.174,3186.536,1510.782Z" transform="translate(-455.488 -890.702)" fill="#439401" fill-rule="evenodd"/>
        <path id="Path_1948" data-name="Path 1948" d="M3154.419,1510.8c-.52.414-.55-.469-.406-1.96h1.758C3155.185,1510.522,3154.708,1511.522,3154.419,1510.8Z" transform="translate(-435.858 -890.702)" fill="#439401" fill-rule="evenodd"/>
      </g>
      <path id="Path_1957" data-name="Path 1957" d="M4367.723,3918.71a90.562,90.562,0,0,0,7.527-5.377,28.655,28.655,0,0,0,5.083-5.333v22.5s-1.484-1.667-5.534-6.25" transform="translate(1 -1)" fill="#439401"/>
      <path id="Path_1958" data-name="Path 1958" d="M4373.257,3924.25c-4.05,4.583-6.391,7.1-6.391,7.1l.516-23.312a43.075,43.075,0,0,0,5.424,5.3,90.562,90.562,0,0,0,7.527,5.377" transform="translate(531.277 -1)" fill="#439401"/>
      <path id="Path_1895" data-name="Path 1895" d="M2944.1,1012.416c28.469-15.913,16.722-44.565,26.476-72.316a121.244,121.244,0,0,1,6.474-14.557c-7.606-.528-15.161-.758-25.853-4.188-20.346-6.518-40.366-25.886-65.856-10.7,16.719-28.044-7.79-46.917-13.227-75.866a119.235,119.235,0,0,1-1.656-15.857c-3.32,1.623-7.134,3.528-9.64,4.587-25.648,10.917-43.964,3.244-61.691,12.944a38.742,38.742,0,0,0-15.528,15.453c.462-32.616-30.235-36.771-49.379-59.089a117.871,117.871,0,0,1-9.365-12.9,118.819,118.819,0,0,1-9.361,12.9c-17.184,20.024-39.93,23.812-47.192,45.382a39.7,39.7,0,0,0-2.187,13.7c-15.96-28.585-44.434-16.672-72.305-26.475a119.6,119.6,0,0,1-14.561-6.5c-1.33,19.188-2.587,24.672-12.113,44.01-6.471,13.088-13.755,29.268-2.77,47.694-22.1-13.183-40.905-.077-56.561,7.057-15.147,6.951-26.4,7.218-35.145,7.823,8.346,17.085,10.065,22.409,11.516,44.188.894,13.678,2.481,32.089,21.453,42.686a38.439,38.439,0,0,0-28.157,11.289A83.448,83.448,0,0,0,2466,1038.222v11.373h.377c11.267-16.308,17.364-31.4,39.428-33.225a48.874,48.874,0,0,1,16.825,2.078,33.058,33.058,0,0,1,9.962,8.2,35.835,35.835,0,0,0-24.842-5.782c-18.6,2.543-27.059,16.217-34.881,28.733h3.906c1.917-3.129,3.833-6.2,5.921-9.083,13.806-19.32,34.013-22.347,51.813-11.567,1.433,1.825,2.9,3.884,4.459,6.089-4.8.4-9.449,4.745-12.472,8.479-6.665-7.072-21.163-6.94-28.818,6.082h3.723c5.177-7.885,14.052-11.391,24.663-5.544a45.184,45.184,0,0,0-3.7,5.544h3.375c3.214-5.9,7.739-11.194,13.652-13.953.4.568,1.7,2.433,2.286,3.257-3.759,1.022-8.845,4.807-12.6,10.7h3.312a32.39,32.39,0,0,1,5.1-6.313,45.126,45.126,0,0,0,4.935,6.313h2.293c-3.261-2.927-5.679-5.544-6.973-6.57,1.931-1.814,3.452-2.825,4.316-3.576a66.6,66.6,0,0,0,8.585,10.146h4.606c-11.805-8.629-18.551-26.875-31.983-31.778a12.869,12.869,0,0,0-1.422-1.055,12.43,12.43,0,0,0,1.762-.205c17.331,3.027,34.7-15.847,52.827-10.746a17.777,17.777,0,0,1,7.1,3.653,17.33,17.33,0,0,1,5.416,15.425c-.861,7.2-3.748,19.3-9.2,24.692h4.591c.117-.154.235-.3.352-.465,2.587-3.481,6.4-13.066,7.665-23.82a20.766,20.766,0,0,0-4.88-16.6c-10.054-10.354-23.688-7.445-36.768-1.491-.388-1.088-1.187-2.719-1.949-5.25,3.7-.539,30.47-10.578,43.448,5.958a22.305,22.305,0,0,1,4.4,12.978c.377,7.845-3.235,21.574-7.361,28.689h3.884q.907-1.726,1.664-3.529c3.451,2.561,11.212,1.209,13.125-6.24a9.365,9.365,0,0,0-4.353-11.073,6.944,6.944,0,0,0-3.884-.89,39.277,39.277,0,0,0,.344-5.87c16.327,4.536,10.963,15.33,16.781,20.211-4.1.729-6.207,4.682-9.977,7.4h5.078c.37-.429.693-.861.964-1.176,1.623-2.081,3.334-4.228,6.1-4.825l.172-.033a28.042,28.042,0,0,1,5.372,3.767c-.9.649-1.806,1.4-2.792,2.268h2.077a16.342,16.342,0,0,0,1.2-1.8,23.194,23.194,0,0,1,1.689,1.8h5.1a24.673,24.673,0,0,0-5.683-4.891c6.144-.165,11.3-2.913,17.51-5.969,9.618-4.646,11.952-3.777,19.547-3.2q-1.385-2.028-2.759-4.038a19.186,19.186,0,0,1-3.258-7.24c-1.938-8.042-.194-17.316-4.58-25.4,9.885,5.357,20.551,1.458,30.653,6.551.678.366,3.243,2.155,6.02,4.042-.48-6.236-.608-7.13-.348-9.2,1.206-9.442,9.23-17.334,9.493-27.868,6.262,10.215,19.255,12.2,24.347,23.1l2.143,4.408c2.81-5.87,3.056-6.515,4.313-8.138,5.752-7.559,16.668-10.4,22.171-19.379.326,12.084,10.6,20.152,9.538,32.184-.121,1.616-.242,3.239-.37,4.88,6.042-4.151,5.43-3.745,6.972-4.521,8.592-4.232,20.145-.89,29.7-6.071-5.342,9.845-1.488,20.628-6.551,30.657-.363.671-2.129,3.232-4.038,6.02,6.119-.465,7.112-.612,9.189-.344,9.4,1.194,17.375,9.233,27.865,9.49a24.524,24.524,0,0,0-5.69,4.921h5.089a24.547,24.547,0,0,1,1.686-1.8,17.685,17.685,0,0,0,1.22,1.8h2.071c-.957-.835-1.858-1.587-2.8-2.268a27.674,27.674,0,0,1,5.371-3.77c3.484.714,5.038,3.452,7.244,6.042h5.064c-3.756-2.719-5.83-6.672-9.951-7.4,5.774-4.84.505-15.693,16.781-20.222a39.31,39.31,0,0,0,.344,5.87c-4.283-.487-10.329,4.576-8.244,11.967,1.872,7.376,9.61,8.852,13.124,6.243q.759,1.808,1.667,3.525h4.016c-6.064-10.087-7.731-23.974-7.5-28.685a22.253,22.253,0,0,1,4.4-12.978c13.007-16.572,39.293-6.566,43.448-5.961-.762,2.536-1.561,4.17-1.949,5.254a74.281,74.281,0,0,0-9.709-3.767c-17.686-5.294-30.631,3.4-32.034,16.7-.813,7.152,3.565,23.3,7.76,28.982l.344.469h4.536a18.6,18.6,0,0,1-2.121-2.462c-2.246-3.107-4.03-8.922-5.276-12.861-2.407-10.849-3.4-16.037,2.228-23.376,6.269-6.445,15.074-7.072,23.783-4.694,12.377,3.375,25.285,12.512,37.585,10.354a12.406,12.406,0,0,0,1.762.2,12.9,12.9,0,0,0-1.421,1.059c-13.652,4.979-19.962,23.105-32.068,31.778h4.683a65.8,65.8,0,0,0,8.581-10.146c.861.758,2.393,1.766,4.313,3.576-1.055.832-3.5,3.51-6.95,6.57h2.279a41.572,41.572,0,0,0,4.939-6.313,32.553,32.553,0,0,1,5.1,6.313h3.3c-3.778-5.987-8.768-9.655-12.586-10.7.582-.821,1.89-2.693,2.286-3.257,5.892,2.73,10.42,8.046,13.652,13.953h3.375a45.359,45.359,0,0,0-3.708-5.544c10.343-5.7,19.119-2.733,24.637,5.544h3.752c-7.7-13.1-22.274-13.015-28.814-6.086-3.023-3.73-7.683-8.079-12.469-8.479,1.554-2.22,3.023-4.265,4.456-6.089,14.162-8.577,28.722-7.672,39.948-.366,7.8,5.02,12.784,12.908,17.745,21.02h3.961c-8.021-12.732-16.426-26.2-34.944-28.726a35.837,35.837,0,0,0-24.842,5.782,33.573,33.573,0,0,1,9.963-8.2c2.59-.5,14.879-5.177,28.905.832,13.326,5.463,18.448,17.364,27.312,30.312h.432v-11.406C2974.727,1025,2964.691,1012.127,2944.1,1012.416ZM2780.345,869.671c.821-2.374,1.909-8.746,6.621-15.614,18.262-26.4,42.151-9.609,77.223-24.24h0c5.038,37.546,31.29,50.15,17.627,79.015a48.939,48.939,0,0,1-10.208,13.535,33.267,33.267,0,0,1-12.077,4.536c13.212-6.287,27.524-24.809,15.872-51.461-6.408-14.872-13.417-21.367-15.213-38.708-1.414.63-3.737,1.687-4.536,1.95-20.562,7.723-48.141-3.508-65.805,19.295a35.9,35.9,0,0,0-7.416,24.41,33.328,33.328,0,0,1-2.088-12.721Zm95.168,99.606c-2.568,4.844-5.327,8.757-6.617,10.893a9.478,9.478,0,0,0-3.917-1.587c5.357-7.669,8.321-19.848,8.233-25.274a32.441,32.441,0,0,1,8.3,3.309C2880.551,958.12,2878.686,963.422,2875.513,969.277Zm6.658-12.282a35.755,35.755,0,0,1,9.845,8.8c-1.777,1.348-5.346,4.833-9.8,8.512-4.778,3.994-9.142,7.013-10.5,8.4a12.553,12.553,0,0,0-1.814-1.8C2876.814,974.948,2882.189,962.572,2882.171,956.995Zm-36.2,30.865c-10.017,1.374-18.551-5.111-25.56-12.249-7.115-6.991-13.626-15.506-12.249-25.575,2.968-20.79,30.125-25.091,34.643-26.887.6,2.591.722,4.371.935,5.525-14.388,1.385-27.575,5.7-31.1,19.679-.128.821-.275,1.663-.326,2.48-.521,8.438,3.29,13.256,7.522,18.2a50.146,50.146,0,0,0,7.134,7.137c4.789,4.1,9.647,8.05,18.2,7.518a19.514,19.514,0,0,0,12.769-6.174c6.7-6.756,8.486-15.814,9.395-25.234,1.132.205,2.946.33,5.521.934-1.319,3.323-5.976,31.653-26.886,34.65Zm-37.538-21.731a39.639,39.639,0,0,0,3.235,4.906c-3.744,1.616-6.47,8.489-1.777,13.85.432.458.791.821,1.249,1.249,5.32,4.664,12.179,2.015,13.85-1.777a39.731,39.731,0,0,0,4.906,3.239c-12.08,11.989-18.649,1.781-25.886,4.419,2.572-7.072-7.431-13.714,4.408-25.886Zm3.957,5.837a92.309,92.309,0,0,0,11.648,11.651c-4.954,3.125-8.5,2.217-11.607-1.059a8.2,8.2,0,0,1-1.077-1.517c-1.7-3.118-.843-6.1,1.026-9.072Zm-55.3-17.565c6.823,1.363,11.589-4.261,11.106-8.468a39.252,39.252,0,0,0,5.866.348c-4.676,16.415-15.308,10.919-20.207,16.777-1.293-7.335-13.374-8.365-9.116-24.637a39.765,39.765,0,0,0,5.254,2.635c-2.293,3.089-1.938,11.256,7.09,13.344Zm-6-12.9a92.474,92.474,0,0,0,15.935,4.269c-4.844,9.208-14.509,5.441-15.77-1.059a13.258,13.258,0,0,1-.172-3.21Zm-5.606-6.573a22.23,22.23,0,0,1-9.035-10.3c-7.819-19.478,13.762-37.065,16.565-40.615,1.81,1.935,2.818,3.433,3.573,4.316-8.665,6.189-17.225,13.9-17.957,25.344a19.151,19.151,0,0,0,4.547,13.769c3.976,4.8,8.545,6.32,15.242,8.592,30.309,9.852,43.576-10.146,30.389-39.069,1.084-.385,2.719-1.183,5.25-1.949.619,4.225,10.542,30.5-5.958,43.455-12.743,9.885-36.783.231-42.6-3.543Zm-51.56,19.152c7.335-2.239,8.237-9.787,5.841-13.022a39.336,39.336,0,0,0,5.254-2.635c4.276,16.323-7.808,17.18-9.113,24.637-4.781-5.712-15.576-.5-20.207-16.777a39.283,39.283,0,0,0,5.866-.348c-.429,3.9,3.858,10.3,12.374,8.145Zm-11.186-8.3a92.145,92.145,0,0,0,15.935-4.272c.231,5.848-2.158,8.24-6.408,9.45-4.356,1.044-7.394-1.154-9.511-5.181Zm21.519-10.842c-5.972,3.851-30.016,13.315-42.616,3.543-16.568-13.007-6.57-39.263-5.961-43.455,2.539.762,4.159,1.561,5.251,1.949-5.749,12.633-8.9,26.685,1.495,36.775,5.763,4.631,12.509,7.83,31.254,1.491,5.8-2.045,11.765-4.261,15.609-12,4.854-9.611-.154-20.958-8.013-28.381a75.872,75.872,0,0,0-8.116-6.526c.755-.883,1.762-2.382,3.572-4.316,2.221,2.818,24.4,21.086,16.561,40.615a22.163,22.163,0,0,1-9.021,10.3Zm-58.5,57.085c-6.775-2.473-14.062,7.306-25.883-4.422a39.665,39.665,0,0,0,4.9-3.235c2.546,5.782,12.827,6.093,16.638-1.773,2.47-5.1-.286-10.244-3.312-11.552a39.639,39.639,0,0,0,3.235-4.906C2653.417,978.561,2643.037,984.614,2645.744,992.019Zm-20.042-8.38a92.548,92.548,0,0,0,11.648-11.648c2.3,3.66,2.854,7.332-.059,10.611a8.306,8.306,0,0,1-4.716,2.865,9.52,9.52,0,0,1-6.877-1.821Zm-8.486,1.55a22.2,22.2,0,0,1-13.436,2.675c-20.779-2.964-25.219-30.459-26.886-34.647,2.591-.6,4.378-.725,5.522-.938,1.389,14.312,5.672,27.564,19.679,31.1a20.782,20.782,0,0,0,16.821-4.071c13.07-9.754,24.567-24.23,15.33-37.659-6.313-9.493-17.51-11.93-28.217-12.945.209-1.147.33-2.957.935-5.522,3.5,1.385,31.679,6.082,34.643,26.886,2.045,15.041-16.939,31.294-24.395,35.119Zm-42.986-15.92c-3.169-5.851-5.042-11.168-5.994-12.659a32.4,32.4,0,0,1,8.292-3.309c-.026,1.627,1.231,15.246,8.237,25.278a9.355,9.355,0,0,0-3.917,1.586c-1.294-2.132-4.053-6.046-6.621-10.889Zm5.606,11.662a12.5,12.5,0,0,0-1.81,1.8c-1.363-1.385-5.73-4.408-10.5-8.4-4.459-3.679-8.024-7.159-9.8-8.511a35.761,35.761,0,0,1,9.852-8.8c0,5.851,5.606,18.133,12.278,23.893Zm90.431-111.056a13.055,13.055,0,0,0,.205-1.766,11.793,11.793,0,0,0,1.055,1.425c6.02,16.5,31.063,22.175,35.72,40.381a16.45,16.45,0,0,1-.945,11.835c-3.25,6.372-7.937,8.2-13.762,10.241-16.268,5.478-22.119,3.715-27.931-.744-4.547-4.426-6.141-9.816-5.932-16.341.747-15.125,14.169-30.356,11.589-45.038Zm120.8,45.027c.429,14.07-8.717,21.739-19.935,20.317a62.667,62.667,0,0,1-13.931-3.232c-5.708-2-10.479-3.807-13.758-10.237a16.435,16.435,0,0,1-.949-11.835c4.638-18.21,29.7-23.882,35.72-40.385a.954.954,0,1,1,1.26.341c-2.576,14.682,10.849,29.917,11.6,45.034Zm56.946-1.726c10.93-2.59,17.865-18.225,6.042-32.456,2.55-.865,4.554-3.719,5.038-6.929,1.033-6.8-3.979-12.945-5.8-18.433a24.55,24.55,0,0,1-.963-5.009,30.588,30.588,0,0,1-4.111,1.512c-5.317,1.2-9.992.431-15.023,2.032-6.291,1.959-8.717,6.8-8.024,10.16-18.093-3.092-28.352,10.567-25.069,21.471-4.745.758-10.835,2.62-13.579,6.559-1.143-2.455-2.18-4.745-3.045-6.9-.26-10.5,2.77-18.983,8.281-25.663,17.781-21.441,44.375-9.277,65.531-17.751a44.237,44.237,0,0,0,2.158,8.337c3.385,9.557,9.167,17.941,13.051,26.639,9.589,21.108,2.8,40.421-15.887,50.662-2.294.33-4.808.579-7.5.813,2.044-4.345.619-10.534-1.106-15.037Zm-15.777-11.9c-18-14.608-36.856-11.706-43.7-4.913-.428-.916-1.4-3.026-1.678-3.609,11.567-8.086,32.452-4.785,41.513,1.227,11.867,7.925,21.046,22.435,20.012,34.3-.744.062-2.946.253-3.96.348,1.37-5.225-.345-17.778-12.194-27.355Zm-28.205-7.632a35.662,35.662,0,0,1,12.923,2.689c-.865,2.059-2.209,6.863-4.228,12.274-2.158,5.844-4.408,10.644-4.9,12.513a12.5,12.5,0,0,0-2.462-.649c2.982-8.592,1.484-21.958-1.334-26.835Zm13.93,3.118a65.322,65.322,0,0,1,11.4,6.562c-6.6,3.884-15.048,14.762-16.7,20.43a25.3,25.3,0,0,0-4.034-2.338c4.125-4.283,9.259-17.019,9.336-24.659Zm3.767,17.041c3.678-4.455,7.159-8.024,8.515-9.8a35.8,35.8,0,0,1,8.794,9.849c-5.994,0-18.185,5.639-23.915,12.274a12.148,12.148,0,0,0-1.788-1.814c1.385-1.37,4.4-5.734,8.39-10.512Zm5.027,6.7c5.855-3.166,11.172-5.038,12.659-5.991a32.329,32.329,0,0,1,3.309,8.292c-1.623-.026-15.242,1.231-25.27,8.237a9.437,9.437,0,0,0-1.586-3.917c2.128-1.3,6.046-4.056,10.886-6.625Zm22.889-65.453c2.29,8.2,12.077,18.008,3.844,25-5.991-6.83-17.99-13.952-27.414-15.825,1.96-10.7,15.682-7.146,23.567-9.174Zm4.635,31.521c5.609,9.446,4.367,19.371-6.511,25.963a45.45,45.45,0,0,0-3.7-7.233c7.383-2.832,6.9-16.605-8.666-25.589s-27.714-2.484-26.491,5.294a45.563,45.563,0,0,0-8.115.429c.26-12.531,8.09-18.749,19.228-18.62,11.212.176,28.458,10.124,34.251,19.756Zm-10.765,17.869c-7.738-11.743-18.5-18.51-33.606-19.416,1.6-8.38,13.109-8.493,23.754-2.338,10.494,6.06,16.389,16.129,9.856,21.757ZM2727.2,899.606a26.138,26.138,0,0,0-4.668,0c1.418-5.8-.506-19.415-4.25-26.04a65.9,65.9,0,0,1,13.168,0c-3.781,6.72-5.638,20.346-4.243,26.04Zm-5.514.139a12.221,12.221,0,0,0-2.458.674c-1.7-8.925-9.673-19.767-14.568-22.585a35.623,35.623,0,0,1,12.534-4.133c.286,2.217,1.513,7.053,2.473,12.747,1.077,6.134,1.513,11.424,2.026,13.3Zm8.365-13.3c.96-5.7,2.188-10.53,2.473-12.747a35.62,35.62,0,0,1,12.534,4.133c-5.177,2.968-12.941,13.945-14.568,22.585a12.171,12.171,0,0,0-2.459-.674c.535-1.869.971-7.159,2.019-13.293Zm-5.177-16.631a41.107,41.107,0,0,0-15.367,2.429c-9.417,3.481-15.561,10.761-16.9,15.686-.865-.594-2.722-1.916-3.257-2.286,6.093-13.055,26.084-20.353,36.559-19.7a47.754,47.754,0,0,1,7.518,1.1c10.285,2.319,22.394,8.808,26.967,18.6-.535.374-2.418,1.693-3.257,2.286-1.785-6.57-12.454-18.617-32.262-18.107Zm19.778-23.236c9.581,5.389,13.48,14.578,7.335,25.742a45.3,45.3,0,0,0-6.837-4.408c4.895-6.042-2.155-17.834-20.281-17.826-18.627,0-24.97,12.037-20.28,17.826a45.49,45.49,0,0,0-6.819,4.415c-6.075-11.062-2.308-20.318,7.335-25.741,9.816-5.439,29.722-5.439,39.545,0ZM2724.872,821.6h0c5.851,5.734,19.445,9.561,15.828,19.727-8.815-2.995-22.735-3.023-31.657,0-3.656-10.278,9.929-13.945,15.828-19.719Zm19.416,45.836c-12.579-6.3-25.5-6.661-38.8,0-3.451-9.864,11.8-15.727,25.454-13.481,7.738,1.27,15.906,6.133,13.348,13.489Zm16.73,17.785c-.407-4.789-4.745-9.45-8.479-12.472,8.237-7.768,6.273-24.75-10.985-31.132,2.268-2.55,2.624-7.937-1.868-12.814-2.689-2.935-6.038-4.746-9.156-6.965a21.453,21.453,0,0,1-5.646-5.669c-.7.863-1.393,1.859-2.111,2.646a14.794,14.794,0,0,1-1.228,1.212,79.908,79.908,0,0,1-7.167,5.121c-2.935,2.063-5.756,4.609-7.068,7.947-1.228,3.15-.813,6.593.9,8.526-17.569,6.5-19.028,23.558-10.981,31.132-3.719,3.023-8.072,7.672-8.479,12.472-2.217-1.554-4.261-3.023-6.086-4.455-10.882-17.965-7.728-38.019,11.567-51.822,7.717-5.609,16.91-9.953,24.622-16.542a45.591,45.591,0,0,0,5.741-5.8l.286-.349h0c3.646,4.746,9.449,9.061,14.44,12.323,5.694,3.689,11.322,6.817,16.213,10.355,19.547,13.985,22.262,34.163,11.567,51.819-1.839,1.44-3.884,2.913-6.1,4.466ZM2644.4,920.469a12.441,12.441,0,0,0-2.462.649c-.491-1.883-2.755-6.679-4.9-12.513-2.016-5.412-3.364-10.215-4.228-12.274a35.66,35.66,0,0,1,12.923-2.689c-2.74,4.694-4.412,18.02-1.341,26.835Zm-33.672-6.632a35.912,35.912,0,0,1,8.793-9.852c1.355,1.781,4.837,5.346,8.515,9.8,3.99,4.774,7.013,9.138,8.4,10.5a12.169,12.169,0,0,0-1.792,1.814c-5.613-6.482-17.745-12.285-23.926-12.271Zm23.171,13.282a9.389,9.389,0,0,0-1.586,3.917c-8.944-6.247-21.929-8.288-25.27-8.237a32.349,32.349,0,0,1,3.308-8.292c1.488.956,6.8,2.825,12.659,5.991,4.829,2.568,8.742,5.331,10.879,6.621Zm-13.516-23.8a65.2,65.2,0,0,1,11.4-6.58c.084,7.922,5.419,20.592,9.336,24.673a25.888,25.888,0,0,0-4.038,2.338c-1.608-5.522-9.937-16.429-16.7-20.427Zm-2.873-2.066c-11.648,9.427-13.615,21.933-12.186,27.352l-3.961-.348c-1.425-16.286,15.1-32.544,22.812-35.812,12.571-5.577,28.832-6.614,38.71.3-.279.6-1.257,2.693-1.678,3.605-7.148-7.094-26.172-9.3-43.7,4.913Zm12.219-34.478c11.212-.125,18.983,6.134,19.229,18.624a45.545,45.545,0,0,0-8.116-.432c.575-3.62-2.744-10.732-14.333-9.493-12.285,1.26-26.256,12.758-25.454,22.819.275,2.924,1.938,5.958,4.613,6.984a46.083,46.083,0,0,0-3.7,7.236c-4.236-2.591-7.533-5.69-9.058-10.494-5.657-18.393,22.731-34.98,36.82-35.229Zm-33.463,13.242c-8.2-6.965,1.689-17.29,3.843-25h0c8.4,2.157,21.592-1.622,23.567,9.173C2614.611,866.014,2602.517,872.917,2596.27,880.018Zm43.572,4.994c-14.736.865-25.8,7.57-33.6,19.415-9.446-8.145,6.9-23.728,20.687-25.791,6.057-.927,11.795.575,12.9,6.394Zm26.425.136c-.861,2.154-1.9,4.448-3.045,6.9-2.748-3.957-8.837-5.8-13.579-6.559,3.261-10.853-6.94-24.567-25.065-21.471.539-2.631-.942-5.8-3.484-7.835-2.8-2.235-6.522-3.023-10.091-3.349a77.4,77.4,0,0,1-8.764-.863,15.9,15.9,0,0,1-1.674-.431c-1.008-.324-2.107-.829-3.151-1.233-1.048,6.83-1.077,5.372-4.609,13.026a26.155,26.155,0,0,0-1.891,5.32c-1.235,5.478.729,9.6,3.452,11.38a5.611,5.611,0,0,0,1.323.649c-12.509,15.059-3.84,30.111,6.042,32.456-1.726,4.5-3.158,10.688-1.11,15.033-2.693-.234-5.206-.484-7.5-.81-18.32-10.058-25.677-29.1-15.891-50.666,3.884-8.713,9.67-17.077,13.055-26.638a46.3,46.3,0,0,0,1.535-5.178c.073-.319.612-2.869.612-3.15,16.869,6.757,38.065.349,54.157,8.629,11.85,6.041,20.072,18.181,19.668,34.8Zm-32.943,61.9a15.661,15.661,0,0,1,.781,4c.432,7.988-3.6,12.329-10,19.313-4.467,4.093-7.955,7.13-11,8.5a17.262,17.262,0,0,1-12.308.725,17.767,17.767,0,0,1-6.719-4.312c-13.377-13.044-5.885-37.717-17.111-51.131a13.285,13.285,0,0,0-.7-1.627,12.316,12.316,0,0,0,1.627.7c14.744,12.384,48.17,2.33,55.425,23.853Zm.048-15.246c1.2-1.136,3.36-4.283,7.419-6.3,3.781-2.5,7.584-2.8,9.171-3.276a30.873,30.873,0,0,0,.59,3.323c-5.126-.755-12.681,3.576-14.6,8.427A32.592,32.592,0,0,0,2633.371,931.8Zm16.437-10.878a9.416,9.416,0,0,0-4.184-.583c-.048-2.5-.484-7.266-.286-12.74.187-6.657,1.228-12.2,1.143-13.963a32.508,32.508,0,0,1,8.837,1.293C2654.454,896.37,2648.767,908.788,2649.808,920.919Zm64.955-17.4c-4.672-9.981-14.971-18.214-17.77-19.767a32.177,32.177,0,0,1,7.013-5.525c.806,1.568,4.481,5.844,7.969,11.516,2.909,4.646,4.914,8.991,6.123,11.179A9.468,9.468,0,0,0,2714.763,903.515Zm10.113-.546c4.521-.275,7.966,1.374,9.574,1.751a33.058,33.058,0,0,0-1.154,3.177c-4.074-3.235-12.776-3.232-16.851,0a32.771,32.771,0,0,0-1.15-3.177c1.612-.377,5.056-2.026,9.578-1.748Zm6.775-2.052c1.205-2.187,3.213-6.533,6.122-11.182,3.492-5.668,7.163-9.922,7.969-11.516a32.305,32.305,0,0,1,7.013,5.529c-1.422.784-12.586,8.691-17.77,19.764a9.513,9.513,0,0,0-3.334-2.6Zm62.771-6.005a32.49,32.49,0,0,1,8.834-1.3c-.08,1.766.96,7.31,1.147,13.963.2,5.474-.238,10.245-.286,12.74a9.418,9.418,0,0,0-4.184.583c.927-10.776-3.741-23.036-5.511-25.992Zm5.368,27.319c1.583.476,5.39.773,9.167,3.276,4.06,2.015,6.222,5.177,7.42,6.3a32.993,32.993,0,0,0-2.587,2.158c-1.913-4.84-9.457-9.189-14.6-8.427A32.4,32.4,0,0,0,2799.79,922.231Zm47.221,57.891a17.529,17.529,0,0,1-14.11-3.558c-13.4-10.08-24.113-24.362-12.146-36.244,13.11-13.451,37.662-5.844,51.12-17.115a12.543,12.543,0,0,0,1.627-.7,13.292,13.292,0,0,0-.7,1.627C2860.037,939.393,2871.19,974,2847.011,980.122ZM2670.084,852.092c1.51-18.51,12.868-26.471,25.838-34.609,12.509-7.892,18.917-12.211,28.927-25,9.9,12.647,16.111,16.914,28.931,25,12.941,8.116,24.325,16.072,25.838,34.609.641,8.285-1.575,14.266-2.074,16.827a33.422,33.422,0,0,1-8.2,9.955c9.321-13.527,9.944-36.348-11.985-52.5-7.823-5.833-16.851-10.205-24.267-16.578a45.465,45.465,0,0,1-8.259-9.337l-1.594,2.2c-10.823,15.079-33.167,19.882-43.407,36.614a36.448,36.448,0,0,0,.491,39.6,33.367,33.367,0,0,1-8.2-9.951c-.15-.769-1.411-5.232-1.649-7.3A39.552,39.552,0,0,1,2670.084,852.092Zm-84.554-22.277h0c24.9,10.385,38.4,5.027,55.224,9.061a34.76,34.76,0,0,1,13.436,6.173c12.183,9.082,14.363,22.144,15.217,24.614a33.413,33.413,0,0,1-2.1,12.725c1.429-18.009-11.212-36.64-36.629-39.474-17.451-2.05-24.94,1.048-41.125-6.173-1.795,17.332-8.848,23.938-15.213,38.708-10.988,25.113,1.059,44.415,15.873,51.461a33.439,33.439,0,0,1-12.08-4.536,48.7,48.7,0,0,1-10.2-13.538c-13.677-28.924,12.52-40.912,17.638-79.012ZM2523.4,1015.685c-2.312-.8-8.735-1.9-15.612-6.621-26.509-18.335-9.783-43.528-24.238-77.23h0c37.875-4.913,49.922-31.4,79-17.631a40.02,40.02,0,0,1,9.493,6.361c2.276,2.088,4.06,3.847,4.06,3.847a33.372,33.372,0,0,1,4.532,12.08c-7.423-15.634-27.282-26.443-51.454-15.872-14.762,6.364-21.39,13.414-38.7,15.213a45.377,45.377,0,0,1,3.957,11.824c3.547,18.844-2.994,42.81,17.287,58.525a35.862,35.862,0,0,0,24.406,7.416A33.75,33.75,0,0,1,2523.4,1015.685Zm15.5-3.147c-9.493.194-18.2-2.125-25.663-8.281-21.4-17.756-9.3-44.272-17.748-65.542,18.2-2.671,33.134-18.734,51.215-19.61,12.992-.685,25.93,5.232,34.412,20.284.33,2.3.579,4.807.813,7.5-4.36-2.056-10.552-.608-15.033,1.11-2.616-11.073-18.3-17.807-32.448-6.042-.942-2.836-5.921-8.2-17.349-2.9-1.762.81-3.5,1.726-5.291,2.561a21.514,21.514,0,0,1-7.735,2.052,30.39,30.39,0,0,1,1.51,4.111c1.2,5.335.432,9.988,2.033,15.026,2.037,6.529,7.053,8.662,10.16,8.024-3.023,17.781,10.226,28.451,21.464,25.08.759,4.749,2.62,10.834,6.559,13.575-2.448,1.147-4.745,2.187-6.9,3.048Zm-1.664-57.385c-7.082,8.248-10.823,21.247-6,28.22,1.726,2.429,4.69,4.184,7.5,3.741a45.572,45.572,0,0,0,.428,8.116c-23.237-.487-23.823-26.582-6.152-47.148,9.322-10.9,24.311-14.623,33.273.169a45.521,45.521,0,0,0-7.236,3.7c-2.239-5.774-12.674-7.522-21.8,3.2Zm20.936-2.649c-11.842,7.812-18.551,18.91-19.412,33.61-12.179-2.316-6-23.893,5.02-32.679,4.873-3.906,10.585-5.36,14.4-.923Zm-49.391-6.115c8.075-2.253,17.953-12.109,25-3.84-7.009,6.137-13.992,18.17-15.828,27.414-10.655-1.949-7.13-15.641-9.171-23.57h0Zm41.3,61.1-3.605,1.678c-8.442-12.084-4.877-34.306,3.147-44.2,7.145-9.372,20.434-18.368,32.357-17.338.048.561.26,2.986.352,3.968-6.5-1.726-22.3,1.385-31.818,18.888-9.816,16.085-5.917,31.47-.429,37.01Zm-1.436-5.892a32.5,32.5,0,0,1-1.293-8.838c1.766.084,7.306-.956,13.956-1.143,5.478-.2,10.248.234,12.747.286a9.465,9.465,0,0,0,.579,4.184c-10.82-.92-23.083,3.774-25.985,5.518Zm25.564-10.926c-8.563-2.982-21.944-1.513-26.835,1.33a35.629,35.629,0,0,1,2.689-12.923c2.059.861,6.855,2.209,12.271,4.228,5.848,2.155,10.644,4.408,12.513,4.9A12.963,12.963,0,0,0,2574.2,990.674Zm-23.725-12.6a65.41,65.41,0,0,1,6.573-11.4c3.913,6.632,14.784,15.063,20.427,16.7a25.2,25.2,0,0,0-2.337,4.041c-4.283-4.122-17.034-9.27-24.659-9.339Zm25.476,18.166c.476-1.583.773-5.393,3.275-9.171,2.016-4.06,5.177-6.218,6.3-7.42a33.12,33.12,0,0,0,2.158,2.587c-4.836,1.913-9.185,9.449-8.427,14.6A33.562,33.562,0,0,0,2575.956,996.24Zm28.517,43.063c-1.293,4.349-4.745,5.837-9.248,5.668a92.207,92.207,0,0,0,4.268-15.964c5.2,2.77,6.049,6.035,4.983,10.3Zm15.026,2.895c-2.187-1.938-2.587-4.459-3.023-7.332a17.392,17.392,0,0,0-2.114-6.705,15.6,15.6,0,0,0-10.274-7.376,10.1,10.1,0,0,0-4.14,0c-.535-11.651-7.332-20.39-19.588-23.684a43,43,0,0,1,3.258-7.493,42.5,42.5,0,0,1,4.854-6.562c8.317,8.317,18.932,10.849,30.305,5.126.993,3.928,6.815,8.834,13.579,8.8,6.042.183,9.629-4.283,14.729-2.587a27.5,27.5,0,0,1,2.77,5.954c-6.8.663-14.381,4.389-41.158,3.759,13.89,22.794,14.8,31.957,17.323,37.541a28.383,28.383,0,0,1-6.515.557Zm7.193-.733c.04-3.664-2.338-17.334-11.787-33.8h0c17.492-.04,31.155-4.316,35.167-6.687a28,28,0,0,1,.887,4.7c-4.243.645-14.381,4.745-25.069,4.913-1.909.029-4.17-.114-6.262-.2,3.239,5.111,5.972,8.643,9.472,21.863.945,3.653,1.626,6.368,2.125,7.632a28.577,28.577,0,0,1-4.529,1.583Zm5.349-1.971a57.076,57.076,0,0,0-6.108-25.424v-.04h0a46.255,46.255,0,0,0,8.863-1.143,59.261,59.261,0,0,0,16.254-6.291c.187,2.312.176,4.122.179,5.415,0,0-10.453,3.158-19.8,5.181,2.693,8.394,5.412,19.738,5.412,19.738-1.2.693-2.719,1.583-4.785,2.565Zm21.372-9.6h0c-6.13.865-10.842,3.766-15.367,6.35a48.966,48.966,0,0,0-2.205-16.5h0a48.6,48.6,0,0,0,15.388-6.339c.059,10.516.6,11.67,2.184,16.488Zm30.536-31.979a3.74,3.74,0,0,0-.333,1.762h0c-5.72-2.246-10.611-2.158-16.488-2.184,2.711-3.811,5.177-10.457,6.339-15.389h0a49.021,49.021,0,0,0,16.492,2.2c-2.7,4.767-4.9,8.431-6.009,13.612Zm6.709-14.814s-10.5-2.451-19.742-5.412c-.821,3.781-1.19,5.533-2.2,9.259-1.359,5-2.587,8.57-2.982,10.549-1.293,0-3.125,0-5.419-.183a58.425,58.425,0,0,0,7.222-22c.165-1.634.205-3.133.205-3.133h0s13,6.837,25.454,6.122c-.968,2.107-1.9,3.69-2.539,4.8Zm2.942-5.609c-4.078-1.594-14.806-3.081-24.161-8.284-1.674-.927-3.558-2.187-5.327-3.3.242,6.042.861,10.457-2.733,23.666-1.008,3.642-1.777,6.331-1.979,7.672a28.08,28.08,0,0,1-4.7-.887c2.36-4,6.647-17.477,6.683-35.171h0c15.257,8.753,29.271,11.835,33.8,11.791a27.678,27.678,0,0,1-1.583,4.51Zm1.726-5.177c-6.174-2.8-14.462-3.276-37.538-17.327.626,26.784-3.125,34.7-3.759,41.165a28.744,28.744,0,0,1-5.954-2.77.688.688,0,0,0-.055-.172c-.865-2.686.139-5.24,1.125-7.691,4.573-11.673-3.067-19.353-7.273-20.452,5.61-11.271,3.382-21.8-5.126-30.3a36.037,36.037,0,0,1,14.052-8.116c3.074,11.487,11.065,18.866,23.676,19.591-1.179,4.386,1.946,13.157,10.831,15.9,3.884,1.066,7.812.495,10.582,3.631a26.429,26.429,0,0,1-.564,6.533Zm29.546,16.323c-3.84-4.866-8.515-7.409-13.187-10.138a48.313,48.313,0,0,0,13.183-10.156h0a48.829,48.829,0,0,0,13.183,10.156C2733.449,981.2,2728.734,983.749,2724.872,988.641Zm14.393-10.842s-7.922-7.57-11.761-11.673c-1.569-1.726-.711-.773-2.631-2.887-6.126,6.756-14.392,14.561-14.392,14.561-1.132-.656-2.711-1.557-4.591-2.854a59.183,59.183,0,0,0,13.575-10.93,45.834,45.834,0,0,0,5.408-7.127h0s3.675,6.668,12.586,13.685a49.053,49.053,0,0,0,6.4,4.371C2742.016,976.209,2740.473,977.1,2739.264,977.8Zm5.353-3.4c-.861-1.059-2.851-3.023-5.54-5.65-9.449-9.4-11.149-13.319-14.2-19.133-2.807,5.338-4.492,9.493-14.2,19.133-2.7,2.645-4.7,4.591-5.543,5.65a27.786,27.786,0,0,1-3.627-3.122c2.587-1.462,13.374-9.926,23.373-27.117,8.526,14.671,18.921,24.6,23.373,27.117a27.8,27.8,0,0,1-3.627,3.122Zm4.093-3.613c-3.77-5.269-11.007-10.281-23.838-33.771-12.828,23.5-20.354,28.913-23.834,33.771a27.523,27.523,0,0,1-3.771-5.371c1.132-5.324,6.723-6.082,9.611-11.454a15.63,15.63,0,0,0,1.246-12.586,10.029,10.029,0,0,0-2.078-3.583c10.479-7.108,13.846-17.1,10.706-28.81a35.921,35.921,0,0,1,16.231,0c-3.129,11.674.194,21.676,10.707,28.81-3.4,3.356-4.745,12.513,1.432,19.181,2.917,2.953,6.471,4.287,7.335,8.442a26.949,26.949,0,0,1-3.76,5.371Zm17.418,28.924h0a3.753,3.753,0,0,0-.333-1.766c-1.107-5.151-3.269-8.772-6.042-13.6a49.041,49.041,0,0,0,16.5-2.2h0c1.22,5.177,3.749,11.743,6.335,15.389-5.738.015-10.692-.092-16.455,2.173Zm17.888-2.195c-.194-1.008-.652-2.561-1.246-4.543a154.153,154.153,0,0,1-3.935-15.26,155.619,155.619,0,0,1-15.184,4.225c-2.019.469-3.591.865-4.558,1.187-.641-1.121-1.572-2.7-2.557-4.789a45.553,45.553,0,0,0,7.731-.564,51.052,51.052,0,0,0,17.741-5.558h0v.044c.029,1.048.1,2.081.2,3.089a58.838,58.838,0,0,0,7.225,22.006c-2.29.169-4.111.15-5.415.161Zm6.339-.264c-.432-2.928-2.84-9.629-4.089-16.792a56.4,56.4,0,0,1-.623-14.546c-5.972,3.774-9.336,6.167-21.859,9.468-3.653.945-6.368,1.627-7.632,2.125a28.686,28.686,0,0,1-1.583-4.521c2.719.029,16.341-1.773,33.8-11.791h0c.044,18.521,4.712,31.825,6.687,35.171a28.079,28.079,0,0,1-4.7.879Zm5.346-1.081c-.667-6.745-4.393-14.194-3.759-41.169-22.864,13.927-31.877,14.77-37.538,17.331a27.58,27.58,0,0,1-.583-6.536c2.77-3.129,6.687-2.568,10.582-3.635,8.519-2.627,12.117-11.124,10.834-15.9,12.575-.725,20.6-8.1,23.673-19.595a43.117,43.117,0,0,1,7.489,3.257,42.087,42.087,0,0,1,6.562,4.858c-8.552,8.548-10.7,19.1-5.126,30.309-2.913.762-5.756,3.88-7.112,6.632a15.734,15.734,0,0,0-1.689,6.951,14.886,14.886,0,0,0,.469,3.745c1.008,3.862,3.47,7.028,2.155,10.981a28.5,28.5,0,0,1-5.969,2.77Zm.637,33.745h0c1.6-4.859,2.14-6.042,2.184-16.492a49.09,49.09,0,0,0,15.389,6.335h0a48.752,48.752,0,0,0-2.206,16.5c-4.378-2.488-9.171-5.456-15.367-6.342Zm16.583,7.039s2.613-11,5.412-19.742c-9.343-2.03-19.8-5.177-19.8-5.177,0-1.293,0-3.107.183-5.419a59,59,0,0,0,16.25,6.291,46.011,46.011,0,0,0,8.864,1.143h0v.04a57.3,57.3,0,0,0-6.108,25.432c-2.066-.986-3.565-1.869-4.8-2.572Zm10.135,4.525a28.59,28.59,0,0,1-4.518-1.583c1.385-3.554,2.862-13.051,6.969-21.621a66.974,66.974,0,0,1,4.62-7.874c-6.005.242-10.443.861-23.662-2.733-3.642-1.008-6.332-1.777-7.672-1.979a27.758,27.758,0,0,1,.89-4.7c2.517,1.491,15.242,6.643,35.163,6.687h0c-8.452,14.74-11.842,28.671-11.8,33.8Zm31.467,3.5c-5.852.224-8.244-2.158-9.446-6.412-1.044-4.349,1.132-7.4,5.177-9.53a92.318,92.318,0,0,0,4.276,15.942Zm-4.745-24.19a12.865,12.865,0,0,0-9.49,2.191c-9.71,6.507-4.965,14.715-10.04,19.232a27.722,27.722,0,0,1-6.533-.583c2.777-6.123,3.353-14.6,17.323-37.545-27.253.638-33.65-3.023-41.161-3.759a28.565,28.565,0,0,1,2.773-5.954c5.078-1.693,8.662,2.781,14.729,2.59,6.558.029,12.509-4.646,13.579-8.8,11.16,5.61,21.808,3.375,30.3-5.126a42.759,42.759,0,0,1,4.858,6.562,43.225,43.225,0,0,1,3.257,7.489c-11.549,3.118-19.034,11.358-19.606,23.7Zm20.68-23.952c.758-5.177-3.6-12.688-8.424-14.6a32.2,32.2,0,0,0,2.155-2.587c1.136,1.2,4.283,3.36,6.3,7.42,2.5,3.781,2.8,7.588,3.275,9.171a32.75,32.75,0,0,0-3.308.6Zm1.795-13.462c5.775-1.682,16.583-10.186,20.442-16.7a65.887,65.887,0,0,1,6.584,11.406c-7.61.07-20.368,5.214-24.673,9.336A25.669,25.669,0,0,0,2872.252,983.368Zm15.165-.059c5.416-2.015,10.212-3.367,12.267-4.228A35.572,35.572,0,0,1,2902.378,992c-4.679-2.715-18.012-4.4-26.839-1.33a12.713,12.713,0,0,0-.645-2.466C2876.774,987.717,2881.57,985.453,2887.417,983.31ZM2875.1,996.09a9.382,9.382,0,0,0,.582-4.188c2.5-.051,7.266-.484,12.743-.282,6.654.183,12.187,1.224,13.957,1.143a32.464,32.464,0,0,1-1.293,8.83C2899.718,1000.78,2887.3,995.042,2875.1,996.09Zm24.563,11.406c15.553-15.7-3.133-57.972-29.979-56.224a12.778,12.778,0,0,0-2.294.333c.092-1.008.308-3.451.348-3.964,13.025-1.128,32.012,11.014,37.471,26.853,3.609,9.494,4.826,25-1.949,34.683Zm41.311-61.108c-2.132,8.277,1.458,21.625-9.175,23.57-1.781-8.955-8.625-21.1-15.828-27.418,7.031-8.255,17.261,1.685,25,3.84h0Zm-17.279,44.29c-3.884,3.528-8.387,4.459-13.092,4.562a45.616,45.616,0,0,0,.432-8.116c9.68,1.531,15.063-16.173,1.491-31.968-9-10.574-19.522-9.061-21.786-3.2a45.282,45.282,0,0,0-7.233-3.7c6.559-10.816,16.492-12.124,25.963-6.511C2921.412,948.945,2937.875,977.506,2923.691,990.678ZM2891.569,952.5c10.281-11.948,31.65,16.994,24.871,29.579a7.935,7.935,0,0,1-5.467,4.031c-.832-14.136-6.954-25.406-19.4-33.6Zm12.37,56.986c3.949-2.744,5.8-8.819,6.559-13.579,10.494,3.151,24.629-6.6,21.467-25.069,3.136.645,8.119-1.48,10.16-8.028,1.194-3.8,1.088-7.614,1.451-11.41a21.24,21.24,0,0,1,2.093-7.724c-1.1-.169-2.3-.282-3.342-.506-6.438-1.458-12.677-7.372-20.1-6.251-3.334.506-6.112,2.59-6.929,5.038-14.667-12.183-30-4.291-32.452,6.042-4.5-1.726-10.673-3.162-15.033-1.107.238-2.7.487-5.21.817-7.5,10.886-19.342,29.92-25.311,50.655-15.891,11.018,4.921,21.731,13,34.515,15.132l.432.073c-4.693,11.824-3.1,26.077-4.316,37.889-2.162,22.123-16.836,36.38-39.095,35.926C2908.695,1011.673,2906.4,1010.636,2903.939,1009.489Zm23.662,5.837c-.506.128-.927.253-1.26.359a33.329,33.329,0,0,1-12.721-2.107,36.422,36.422,0,0,0,34.541-19.379c9.677-17.789,1.542-36.944,11.109-58.382a52.2,52.2,0,0,1-7.379-1.066c-16.4-3.792-30.792-18.042-48.753-18.5a36.474,36.474,0,0,0-34.046,20.225,33.412,33.412,0,0,1,4.532-12.084c1.627-1.4,5.932-6.573,13.538-10.2,29.03-13.725,41.722,12.872,79.029,17.638h0c-14.6,34.053,2.371,58.837-24.237,77.23A44.725,44.725,0,0,1,2927.6,1015.326Z" transform="translate(1915.107 2869.093)" fill="#439401" fill-rule="evenodd"/>
      <path id="Path_1959" data-name="Path 1959" d="M2694.426,1411.731c-7.577-4.822-16.993.986-21.694,2.979a63.863,63.863,0,0,1-11.959,3.77c-2.953.63-4.683.9-4.793,1.162v.051h0a31.4,31.4,0,0,0,3.569,3.411c8.226,7.493,9.743,11.659,13.714,16.36,9.072,10.648,22.929,7.669,27.213-7.852C2699.951,1433.356,2705.513,1418.7,2694.426,1411.731Zm2.774,18.848c-1.532,5.353-4.291,10.178-9.658,11.563-12.674,3.283-15.708-15.444-30.7-22.248,15.122,1.48,27.11-11.219,35.852-5.437,3.8,2.506,5.328,6.141,5.294,10.743a21.922,21.922,0,0,1-.8,5.47c-.011-.036-.062.136,0-.1Z" transform="translate(1794.736 2470.006)" fill="#439401" fill-rule="evenodd"/>
      <path id="Path_1960" data-name="Path 1960" d="M2795.4,1201.676a63.857,63.857,0,0,1,2.726,12.3c.758,6.28.19,18.283,11.12,21.53,6.5,1.942,12.85-1.183,17.551-5.958l-.07.077c4.727-4.946,7.8-10.926,5.841-17.477-3.232-10.9-15.128-10.362-21.5-11.142a64.04,64.04,0,0,1-12.282-2.726,31.311,31.311,0,0,0-4.767-1.4h0a.1.1,0,0,1-.041.037h0C2793.837,1197.147,2794.471,1198.785,2795.4,1201.676Zm2.88-2.114c13.538,6.4,23.178,2.847,28.971,9.376a11.225,11.225,0,0,1,2.378,9,18.7,18.7,0,0,1-5.456,9.35l.07-.081a25.448,25.448,0,0,1-2.092,1.88c-3.488,2.8-7.7,4.426-11.985,3.231-11.417-3.166-6.452-16.253-13.48-31.151a24.9,24.9,0,0,0-2.022-3.627A25.579,25.579,0,0,0,2798.281,1199.562Z" transform="translate(1707.31 2604.952)" fill="#439401" fill-rule="evenodd"/>
      <path id="Path_1961" data-name="Path 1961" d="M3029.4,1103.483c-1.407.311,11.234-1.832,13.67-12.183,2.613-11.025-7.819-16.477-12.908-20.35a63.383,63.383,0,0,1-9.171-8.478,31.483,31.483,0,0,0-3.378-3.572h0a.122.122,0,0,1-.052,0h0a32.549,32.549,0,0,0-1.158,4.8c-2.352,10.875-5.177,14.289-7.255,20.075C3004.426,1097.222,3014.033,1107.407,3029.4,1103.483Zm-11.567-43.712c4.759,10.578,16.708,16.319,20.471,21.969,4.25,6.35,2.073,15.052-9.732,18.39l.1-.022c-10.08,2.561-15.583-1.553-17.206-6.489-2.968-9,7.727-19.584,6.354-33.848Z" transform="translate(1571.733 2692.376)" fill="#439401" fill-rule="evenodd"/>
      <path id="Path_1962" data-name="Path 1962" d="M3265.047,1058.9h-.026a32.132,32.132,0,0,0-3.415,3.572c-7.482,8.207-11.662,9.754-16.363,13.718-10.75,9.164-7.577,22.9,7.848,27.234-1.92-.6,12.9,5.038,19.892-6.046,2.569-4.038,2.158-9.072.561-13.6-2.092-5.793-4.943-9.2-7.317-20.057A34.176,34.176,0,0,0,3265.047,1058.9Zm-11.032,41.191.1.033c-12.274-3.5-14.07-12.337-9.966-18.419,2.411-3.587,6.416-6.049,9.72-8.849a43.722,43.722,0,0,0,10.919-13.091,25.148,25.148,0,0,0,.059,4.133c1.037,12.582,6.361,18.144,6.844,25.19C3272.191,1096.386,3266.2,1103.216,3254.014,1100.091Z" transform="translate(1425.386 2692.376)" fill="#439401" fill-rule="evenodd"/>
      <path id="Path_1963" data-name="Path 1963" d="M3482.713,1196.9h-.022v-.022h0a33.24,33.24,0,0,0-4.723,1.4A63.008,63.008,0,0,1,3465.8,1201c-5.51.681-13.245.341-18.378,5.771a14.39,14.39,0,0,0-2.451,14.865,22.438,22.438,0,0,0,5.305,7.98l-.066-.073c4.653,4.767,10.963,7.9,17.4,5.954,10.8-3.235,10.263-15.187,11.029-21.53a64.7,64.7,0,0,1,2.7-12.3c.923-2.891,1.55-4.525,1.377-4.752Zm-16.012,35.405a10.762,10.762,0,0,1-4.818.242,18.279,18.279,0,0,1-9.145-5.361l.069.081c-8.68-9.043-6.229-17.679.575-21.024,6.31-3.114,13.744-1.275,25.095-6.69a25.263,25.263,0,0,0,3.59-2.026C3472.563,1210.935,3479.229,1228.8,3466.7,1232.307Z" transform="translate(1295.509 2604.952)" fill="#439401" fill-rule="evenodd"/>
      <path id="Path_1964" data-name="Path 1964" d="M3605.742,1423.062c2.242-2.023,3.609-3.118,3.572-3.393h0v-.026h0a31.6,31.6,0,0,0-4.792-1.169,64.26,64.26,0,0,1-11.963-3.763c-5.825-2.473-15.865-8.915-24.113-1.11-7.995,7.533-2.895,20.438-3.646,17.99,4.155,14.953,17.771,18.921,27.242,7.83C3596,1434.688,3597.524,1430.533,3605.742,1423.062Zm-25.615,19.4c-6.72-.4-10.193-5.434-12.047-11.926.073.231,0,.051.029.1-3.154-13.11,4.368-20.211,15.418-16.766,3.551,1.121,15.371,6.936,24.9,6.005-13.678,6.2-18.012,23.222-28.3,22.585Z" transform="translate(1219.489 2470.007)" fill="#439401" fill-rule="evenodd"/>
    </g>
  </g>
</svg>
